<svg width="19" height="22" viewBox="0 0 19 22" fill="none" xmlns="http://www.w3.org/2000/svg">
<path d="M1.40674 7.53516C1.60598 7.53516 1.76265 7.59916 1.90869 7.74512C2.05471 7.89113 2.11956 8.0479 2.11963 8.24707L2.11963 13.7803C2.11956 13.9954 2.05156 14.1565 1.91162 14.2988C1.7742 14.4385 1.61856 14.5049 1.40674 14.5049C1.1947 14.5049 1.03516 14.4379 0.892091 14.2949C0.749052 14.1519 0.68122 13.9922 0.681154 13.7803L0.681153 8.24707C0.681221 8.0479 0.746077 7.89113 0.892091 7.74512C1.03513 7.60217 1.19475 7.53517 1.40674 7.53516ZM16.8726 7.53515C17.0877 7.53522 17.2488 7.60225 17.3911 7.74219C17.5308 7.87959 17.5971 8.03532 17.5972 8.24707L17.5972 13.7803C17.5971 13.9922 17.5302 14.1519 17.3872 14.2949C17.2442 14.438 17.0845 14.5048 16.8726 14.5049C16.6733 14.5049 16.5166 14.4409 16.3706 14.2949C16.2276 14.1519 16.1597 13.9922 16.1597 13.7803L16.1597 8.24707C16.1597 8.03529 16.227 7.8796 16.3667 7.74219C16.512 7.5994 16.6701 7.53515 16.8726 7.53515ZM9.13916 1.86133C9.96648 1.86133 10.7461 2.02393 11.4829 2.34961L11.5298 2.37012L11.7856 2.50195C12.6128 2.92714 13.2667 3.51547 13.7573 4.27051C14.1315 4.8464 14.3584 5.45974 14.4438 6.11621L3.82178 6.11621C3.9072 5.45969 4.13507 4.84644 4.50928 4.27051C4.99894 3.51693 5.65521 2.92846 6.49072 2.50293L6.76221 2.36426L6.79639 2.34961C7.53299 2.02404 8.31205 1.86137 9.13916 1.86133ZM6.42432 2.96387C6.16199 2.96395 5.9208 3.05286 5.7251 3.2207L5.64404 3.29687C5.46744 3.48151 5.36339 3.70919 5.34033 3.95801L5.33545 4.06543L5.34033 4.17383C5.36343 4.42254 5.46751 4.64942 5.64404 4.83398C5.85219 5.05159 6.12448 5.16787 6.42432 5.16797C6.7236 5.16797 6.99355 5.05283 7.20264 4.84375C7.41172 4.63466 7.52686 4.36472 7.52686 4.06543C7.52677 3.80379 7.43868 3.5648 7.27686 3.36914L7.20264 3.28809L7.12158 3.21387C6.95381 3.07502 6.75414 2.99101 6.53564 2.96973L6.42432 2.96387ZM11.854 2.96387C11.5923 2.96394 11.3534 3.05199 11.1577 3.21387L11.0767 3.28808C10.8937 3.47104 10.7831 3.70008 10.7583 3.95508L10.7524 4.06543L10.7583 4.17676C10.7831 4.43166 10.8938 4.66085 11.0767 4.84375C11.2856 5.05267 11.5549 5.16788 11.854 5.16797C12.154 5.16797 12.427 5.05169 12.6353 4.83398C12.837 4.62303 12.9429 4.35618 12.9429 4.06543C12.9428 3.81111 12.862 3.57518 12.7065 3.37891L12.6353 3.29687L12.5542 3.2207C12.3863 3.07666 12.1849 2.99122 11.9653 2.96973L11.854 2.96387ZM6.21436 20.082L6.20166 17.1611L6.19873 16.5635L4.64893 16.5635C4.41072 16.5634 4.22964 16.4879 4.06983 16.3281C3.90993 16.1682 3.8335 15.9864 3.8335 15.748L3.8335 7.7793L14.4448 7.7793L14.4448 15.748C14.4448 15.9864 14.3694 16.1682 14.2095 16.3281C14.0469 16.4907 13.8688 16.5634 13.6431 16.5635L12.0776 16.5635L12.0776 20.085C12.0775 20.2969 12.0107 20.4566 11.8677 20.5996C11.7247 20.7426 11.5649 20.8095 11.353 20.8096C11.1409 20.8096 10.9805 20.7427 10.8374 20.5996C10.6944 20.4566 10.6275 20.2969 10.6274 20.085L10.6274 16.5635L7.65186 16.5635L7.65186 20.085C7.65176 20.2968 7.5848 20.4566 7.4419 20.5996C7.29879 20.7427 7.1384 20.8096 6.92627 20.8096C6.72706 20.8095 6.57035 20.7456 6.42432 20.5996C6.28131 20.4566 6.21445 20.2969 6.21436 20.085L6.21436 20.082Z" stroke="#768797" stroke-width="1.2"/>
</svg>
