<svg width="18" height="21" viewBox="0 0 18 21" fill="none" xmlns="http://www.w3.org/2000/svg">
<path d="M12.4084 1.59692C12.7475 3.63338 10.6223 5.17474 9.43407 5.86695C9.08376 6.07153 8.68768 5.8109 8.7484 5.41015C8.95111 4.06309 9.69376 1.59692 12.4084 1.59692Z" stroke="#768797" stroke-width="1.50376"/>
<path d="M5.86804 5.80063C6.70598 5.80063 7.44677 5.98746 8.011 6.19297C8.73945 6.4536 9.53573 6.4536 10.2642 6.19297C10.9502 5.93848 11.6754 5.8057 12.4071 5.80063C13.4207 5.80063 14.7098 6.35085 15.6767 7.45128C12.4071 10.0043 13.3413 14.208 16.395 15.3215C15.4198 17.9998 13.5664 19.813 11.9391 19.813C10.5379 19.813 10.5388 19.1591 9.13759 19.1591C7.73636 19.1591 7.73636 19.813 6.33512 19.813C3.99973 19.813 1.19727 16.0763 1.19727 11.4056C1.19727 7.66894 3.99973 5.80063 5.86804 5.80063V5.80063Z" stroke="#768797" stroke-width="1.50376"/>
</svg>
