<svg width="52" height="26" viewBox="0 0 52 26" fill="none" xmlns="http://www.w3.org/2000/svg">
<path d="M52 0C52 14.3594 40.3594 26 26 26C11.6406 26 0 14.3594 0 0H52Z" fill="#9A9AB4"/>
<path d="M27.8599 4.54954C27.6818 4.37572 27.47 4.23775 27.2366 4.1436C27.0032 4.04945 26.7528 4.00098 26.5 4.00098C26.2471 4.00098 25.9968 4.04945 25.7634 4.1436C25.53 4.23775 25.3182 4.37572 25.1401 4.54954L15.5633 13.8222C15.2026 14.1714 15 14.645 15 15.1389C15 15.6327 15.2026 16.1064 15.5633 16.4556C15.924 16.8048 16.4131 17.001 16.9232 17.001C17.4333 17.001 17.9224 16.8048 18.2831 16.4556L26.5 8.48113L34.7169 16.4556C35.0776 16.8048 35.5667 17.001 36.0768 17.001C36.5869 17.001 37.076 16.8048 37.4367 16.4556C37.7974 16.1064 38 15.6327 38 15.1389C38 14.645 37.7974 14.1714 37.4367 13.8222L27.8599 4.54954Z" fill="#00003D"/>
</svg>
