<svg width="52" height="26" viewBox="0 0 52 26" fill="none" xmlns="http://www.w3.org/2000/svg">
<path d="M52 0C52 14.3594 40.3594 26 26 26C11.6406 26 0 14.3594 0 0H52Z" fill="#9A9AB4"/>
<path d="M25.1401 16.4524C25.3182 16.6262 25.53 16.7642 25.7634 16.8584C25.9968 16.9525 26.2472 17.001 26.5 17.001C26.7529 17.001 27.0032 16.9525 27.2366 16.8584C27.47 16.7642 27.6818 16.6262 27.8599 16.4524L37.4367 7.1798C37.7974 6.83059 38 6.35695 38 5.86309C38 5.36923 37.7974 4.89559 37.4367 4.54638C37.076 4.19716 36.5869 4.00098 36.0768 4.00098C35.5667 4.00098 35.0776 4.19716 34.7169 4.54638L26.5 12.5208L18.2831 4.54638C17.9224 4.19716 17.4333 4.00098 16.9232 4.00098C16.4131 4.00098 15.924 4.19716 15.5633 4.54638C15.2026 4.89559 15 5.36923 15 5.86309C15 6.35695 15.2026 6.83059 15.5633 7.1798L25.1401 16.4524Z" fill="#00003D"/>
</svg>
