<svg width="75" height="74" viewBox="0 0 75 74" fill="none" xmlns="http://www.w3.org/2000/svg">
<path d="M68.333 0.470757C68.3215 0.451683 68.3055 0.436424 68.2925 0.417349C68.2765 0.39446 68.2605 0.373859 68.2429 0.351734C68.1788 0.272384 68.1064 0.202191 68.0209 0.147251C68.0156 0.143436 68.0118 0.137332 68.0064 0.133517C68.0049 0.132754 68.0026 0.132754 68.0011 0.131991C67.908 0.0762936 67.8042 0.0434897 67.6966 0.0228892C67.6699 0.0183113 67.644 0.0144965 67.6173 0.0114446C67.5852 0.00915582 67.557 0 67.5265 0H6.47693C6.44336 0 6.41208 0.00915572 6.37851 0.0129705C6.35104 0.0160224 6.3251 0.0183114 6.29687 0.0244151C6.18929 0.0457794 6.08706 0.0801127 5.99549 0.136572C5.99396 0.138098 5.99091 0.137335 5.98786 0.139624C5.97947 0.144202 5.97565 0.153358 5.96726 0.158698C5.88562 0.212107 5.81619 0.280772 5.7544 0.358588C5.73609 0.381478 5.71854 0.403603 5.70252 0.428782C5.69031 0.447856 5.67352 0.463118 5.66284 0.482193L0.112989 10.6572C-0.0411313 10.9411 -0.0380804 11.2852 0.125196 11.5637L18.6151 43.4088C17.0601 46.3234 16.1759 49.6476 16.1759 53.1749C16.1782 64.6576 25.5201 74 37.001 74C48.483 74 57.8262 64.6574 57.8262 53.1749C57.8262 49.7079 56.9694 46.4394 55.4647 43.5606C55.5014 43.5178 55.5403 43.4766 55.5693 43.4255L74.0691 11.5647C74.2339 11.2809 74.2362 10.9315 74.0745 10.6461L68.333 0.470757ZM37.0015 32.3511C33.8832 32.3511 30.9253 33.0446 28.2669 34.2791L14.6646 12.3621H59.5259L46.1496 34.4725C43.3867 33.1159 40.2815 32.3507 37.0007 32.3507L37.0015 32.3511ZM60.6451 10.5122H13.5161L8.1387 1.84933H65.8854L60.6451 10.5122ZM1.98628 11.0852L6.52594 2.76199L26.6186 35.1345C23.849 36.7337 21.4785 38.9485 19.7007 41.5953L1.98628 11.0852ZM36.9995 72.1504C26.537 72.1504 18.0251 63.6387 18.0251 53.1759C18.0251 42.7132 26.5368 34.2015 36.9995 34.2015C47.4621 34.2015 55.974 42.7132 55.974 53.1759C55.974 63.6387 47.4623 72.1504 36.9995 72.1504ZM54.3999 41.7545C52.6939 39.1642 50.4287 36.9736 47.7742 35.3617L67.4978 2.75867L72.2023 11.095L54.3999 41.7545Z" fill="#FF7800"/>
<path d="M44.3032 44.5119L39.8329 43.8626L37.8332 39.8113C37.5212 39.1788 36.4858 39.1788 36.1745 39.8113L34.1756 43.8626L29.7053 44.5119C29.3566 44.563 29.0667 44.8064 28.9576 45.1422C28.8485 45.4763 28.9393 45.8441 29.1918 46.089L32.4275 49.2425L31.6637 53.6952C31.6042 54.0423 31.7469 54.3926 32.0323 54.6001C32.1933 54.7176 32.3848 54.7771 32.5763 54.7771C32.7235 54.7771 32.8715 54.742 33.0066 54.671L37.0054 52.5698L41.0042 54.671C41.3163 54.8366 41.6939 54.8091 41.9785 54.6009C42.2631 54.3933 42.4058 54.0431 42.347 53.696L41.5833 49.2432L44.819 46.0898C45.0708 45.8441 45.1623 45.4763 45.0532 45.1429C44.941 44.8057 44.6519 44.5623 44.3032 44.5119H44.3032ZM39.9405 48.2582C39.7231 48.4703 39.6231 48.777 39.6743 49.0769L40.203 52.1616L37.4326 50.7058C37.2975 50.6349 37.1495 50.5998 37.0022 50.5998C36.855 50.5998 36.7062 50.6349 36.5719 50.7058L33.8031 52.1616L34.3318 49.0769C34.3829 48.777 34.2837 48.4711 34.0655 48.2582L31.8238 46.0729L34.9206 45.6235C35.222 45.5801 35.4822 45.3901 35.6172 45.1177L37.002 42.3115L38.3876 45.1177C38.5226 45.3908 38.7828 45.5801 39.0842 45.6235L42.181 46.0729L39.9405 48.2582Z" fill="#FF7800"/>
<path d="M43.9974 57.8813H30.4111C29.9006 57.8813 29.4863 58.2949 29.4863 58.8061C29.4863 59.3173 29.9006 59.7308 30.4111 59.7308H43.9974C44.5078 59.7308 44.9221 59.3173 44.9221 58.8061C44.9221 58.2949 44.5078 57.8813 43.9974 57.8813V57.8813Z" fill="#FF7800"/>
<path d="M43.9974 63.46H30.4111C29.9006 63.46 29.4863 63.8735 29.4863 64.3847C29.4863 64.8959 29.9006 65.3094 30.4111 65.3094H43.9974C44.5078 65.3094 44.9221 64.8959 44.9221 64.3847C44.9221 63.8735 44.5078 63.46 43.9974 63.46V63.46Z" fill="#FF7800"/>
</svg>
