<svg width="55" height="84" viewBox="0 0 55 84" fill="none" xmlns="http://www.w3.org/2000/svg">
<path d="M54.9499 68.84V1.04826C54.9499 0.470118 54.4815 0.000864182 53.9025 0.000864182L1.04826 0C0.469255 0 0.000864182 0.469254 0.000864182 1.0474L0 68.8391C0 69.4173 0.468391 69.8865 1.0474 69.8865H18.822V82.0706C18.822 82.4741 19.0536 82.8406 19.4174 83.016C19.7795 83.1905 20.2115 83.1396 20.527 82.8872L27.475 77.3011L34.422 82.8872C34.613 83.0402 34.8446 83.1188 35.0788 83.1188C35.2318 83.1188 35.3882 83.0851 35.5317 83.016C35.8963 82.8414 36.1271 82.4742 36.1271 82.0706V69.8865H53.9016C54.4798 69.8865 54.9499 69.4173 54.9499 68.8391L54.9499 68.84ZM36.2681 59.6009C36.3009 59.7643 36.2283 59.8809 36.1825 59.9354C36.1376 59.9898 36.0382 60.0788 35.8757 60.0788C35.861 60.0797 35.8394 60.0788 35.8204 60.078C34.6002 60.078 33.5442 60.9767 33.3541 62.1883C33.3291 62.3525 33.2211 62.4381 33.158 62.4735C33.0975 62.5089 32.9696 62.5591 32.8132 62.4994C31.6586 62.0518 30.3312 62.5349 29.7305 63.6211C29.6502 63.7672 29.5197 63.8095 29.4488 63.8225C29.3797 63.8337 29.2405 63.8389 29.1152 63.7292C28.6477 63.3212 28.0609 63.1173 27.4759 63.1173C26.8882 63.1173 26.3023 63.3213 25.8348 63.7292C25.7095 63.838 25.5721 63.8346 25.5012 63.8216C25.4312 63.8078 25.3007 63.7663 25.2204 63.6203C24.6198 62.5331 23.2932 62.05 22.1362 62.4986C21.9824 62.5573 21.8545 62.5072 21.7922 62.4709C21.7292 62.4355 21.6229 62.3508 21.5961 62.1857C21.4042 60.9603 20.3421 60.0711 19.0813 60.0771C18.9517 60.091 18.8117 59.989 18.7668 59.9337C18.721 59.8792 18.6484 59.7626 18.6812 59.5992C18.9197 58.3807 18.2146 57.1588 17.0419 56.7569C16.8837 56.7033 16.8189 56.5823 16.7947 56.5149C16.7705 56.4475 16.742 56.3135 16.8284 56.1709C17.4687 55.1071 17.2233 53.7193 16.2598 52.9399C16.1284 52.8353 16.1103 52.6996 16.1103 52.6279C16.1094 52.557 16.1293 52.4205 16.2589 52.3159C17.2251 51.5364 17.4688 50.1485 16.8293 49.0855C16.7437 48.942 16.7705 48.8081 16.7956 48.7407C16.8198 48.6733 16.8846 48.5532 17.0419 48.4996C18.2163 48.096 18.9215 46.8749 18.6829 45.6572C18.6501 45.4939 18.7227 45.3772 18.7685 45.3228C18.8134 45.2675 18.8912 45.1629 19.0839 45.1793C20.3422 45.1983 21.4068 44.297 21.5969 43.069C21.6219 42.9048 21.7308 42.821 21.7931 42.7838C21.8561 42.7492 21.9814 42.6982 22.137 42.7579C23.295 43.2038 24.6199 42.7224 25.2205 41.6362C25.3009 41.4901 25.4314 41.4478 25.5022 41.4357C25.5722 41.4218 25.7096 41.4167 25.8358 41.5281C26.7691 42.3439 28.1795 42.3457 29.1171 41.5281C29.2441 41.4167 29.3815 41.4236 29.4507 41.4357C29.5207 41.4486 29.6512 41.4901 29.7324 41.6362C30.333 42.7233 31.6604 43.2055 32.8159 42.7579C32.9697 42.6991 33.1002 42.7492 33.1598 42.7855C33.2229 42.821 33.3292 42.9056 33.356 43.0716C33.5496 44.2987 34.6298 45.1836 35.8707 45.1802H35.8794C36.041 45.1802 36.1404 45.2692 36.1853 45.3236C36.2311 45.3781 36.3037 45.4947 36.2709 45.6581C36.0323 46.8765 36.7384 48.0985 37.9119 48.5004C38.0692 48.5549 38.134 48.675 38.1582 48.7424C38.1824 48.8098 38.211 48.9438 38.1245 49.0872C37.4842 50.1493 37.7287 51.5389 38.6949 52.3183C38.8245 52.4229 38.8444 52.5585 38.8444 52.6303C38.8444 52.7029 38.8245 52.8368 38.6949 52.9414C37.7296 53.7217 37.485 55.1113 38.1245 56.1733C38.2101 56.3168 38.1833 56.4507 38.1582 56.5181C38.134 56.5855 38.0692 56.7065 37.9119 56.7601C36.7367 57.1611 36.0306 58.3822 36.2683 59.6007L36.2681 59.6009ZM34.0325 79.8851L28.5234 75.4561V65.7609C28.9313 65.9104 29.3712 65.9666 29.8128 65.8879C30.5594 65.7566 31.1972 65.3003 31.5645 64.6366C31.6613 64.462 31.8721 64.3843 32.0588 64.456C32.7095 64.7066 33.4138 64.6617 34.0317 64.3653L34.0325 79.8851ZM20.9177 64.3645C21.5374 64.6618 22.2417 64.7058 22.8907 64.4552C23.073 64.3826 23.2891 64.4604 23.3859 64.6358C23.7523 65.2987 24.3892 65.7558 25.1367 65.8872C25.2836 65.9131 25.4288 65.9261 25.5748 65.9261C25.8678 65.9261 26.1564 65.8725 26.4278 65.7731V75.4564L20.9178 79.8861L20.9177 64.3645ZM52.8546 67.7927H36.1276V62.1478C36.7705 62.0829 37.366 61.7857 37.7885 61.2827C38.2768 60.702 38.4712 59.9415 38.3261 59.1974C38.2872 59.0021 38.4004 58.8068 38.5888 58.742C39.3078 58.4957 39.8669 57.9461 40.1261 57.2331C40.3863 56.521 40.3102 55.7398 39.9187 55.0908C39.815 54.9197 39.8548 54.6968 40.0112 54.5714C40.5997 54.0962 40.9393 53.3884 40.9393 52.6296C40.9393 51.8709 40.6006 51.1631 40.0103 50.6861C39.8565 50.5616 39.815 50.3378 39.9196 50.1676C40.3111 49.5177 40.3871 48.7365 40.127 48.0235C39.8686 47.3114 39.3078 46.7618 38.5914 46.5173C38.4021 46.4524 38.2889 46.2563 38.3269 46.0601C38.4738 45.3169 38.2777 44.5564 37.7894 43.9765C37.302 43.395 36.5553 43.0847 35.8303 43.0838C35.6479 43.0933 35.4561 42.9421 35.4259 42.7451C35.3083 41.9958 34.8641 41.3486 34.2074 40.9701C33.5506 40.5916 32.7676 40.5311 32.0616 40.8024C31.8741 40.8733 31.6623 40.7972 31.5647 40.6218C31.1983 39.959 30.5596 39.5018 29.813 39.3705C29.0689 39.2383 28.3093 39.4491 27.7398 39.9469C27.5903 40.0791 27.3648 40.0782 27.2127 39.9469C26.6406 39.4483 25.8758 39.2383 25.1395 39.3705C24.3928 39.5018 23.7542 39.9581 23.3878 40.6218C23.2901 40.7964 23.0784 40.8733 22.8926 40.8024C22.1866 40.5293 21.4028 40.5898 20.7468 40.9692C20.0901 41.3486 19.645 41.995 19.5275 42.7442C19.4981 42.9413 19.3287 43.0553 19.1239 43.083H19.0755C18.3349 43.083 17.6401 43.407 17.1631 43.9757C16.6748 44.5564 16.4804 45.3169 16.6256 46.061C16.6645 46.2563 16.5512 46.4524 16.3629 46.5181C15.6456 46.7635 15.0856 47.3123 14.8255 48.0244C14.5654 48.7365 14.6414 49.5186 15.0329 50.1684C15.1366 50.3395 15.0968 50.5625 14.9421 50.6869C14.3519 51.164 14.0132 51.8717 14.014 52.6305C14.014 53.3893 14.351 54.0961 14.9421 54.5732C15.096 54.6976 15.1375 54.9223 15.0329 55.0926C14.6414 55.7407 14.5654 56.5228 14.8255 57.234C15.0839 57.9461 15.6447 58.4966 16.3629 58.7429C16.5512 58.8068 16.6645 59.0038 16.6256 59.1983C16.4787 59.9415 16.6748 60.702 17.1631 61.2818C17.5822 61.7831 18.2036 62.07 18.824 62.1434L18.8232 67.7925H2.09616V2.09588H52.8531L52.854 67.7925L52.8546 67.7927Z" fill="#FF7800"/>
<path d="M29.2157 52.8362L29.5441 54.7547C29.5597 54.8446 29.5225 54.9362 29.449 54.9897C29.3756 55.0433 29.2762 55.0502 29.1967 55.0079L27.4735 54.1014L25.7503 55.0079C25.7158 55.0269 25.6769 55.0356 25.638 55.0356C25.5887 55.0356 25.5386 55.02 25.498 54.9897C25.4237 54.9362 25.3856 54.8454 25.4029 54.7547L25.7305 52.8353L24.3357 51.4751C24.2709 51.4112 24.2467 51.3161 24.276 51.2288C24.3046 51.1415 24.3797 51.0776 24.4688 51.0655L26.3967 50.7855L27.2583 49.039C27.3413 48.8757 27.6074 48.8757 27.6895 49.039L28.5511 50.7855L30.4782 51.0655C30.5681 51.0793 30.6442 51.1424 30.6709 51.2288C30.7003 51.3161 30.6761 51.4112 30.6113 51.4751L29.2157 52.8362Z" fill="#FF7800"/>
<path d="M43.556 11.9879H11.69C11.111 11.9879 10.6426 11.5186 10.6426 10.9405C10.6426 10.3623 11.111 9.89307 11.69 9.89307H43.556C44.1351 9.89307 44.6034 10.3623 44.6034 10.9405C44.6034 11.5186 44.1351 11.9879 43.5569 11.9879H43.556Z" fill="#FF7800"/>
<path d="M43.556 18.9302H11.69C11.111 18.9302 10.6426 18.461 10.6426 17.8828C10.6426 17.3047 11.111 16.8354 11.69 16.8354H43.556C44.1351 16.8354 44.6034 17.3047 44.6034 17.8828C44.6034 18.461 44.1351 18.9302 43.5569 18.9302H43.556Z" fill="#FF7800"/>
<path d="M43.556 25.8726H11.69C11.111 25.8726 10.6426 25.4034 10.6426 24.8252C10.6426 24.2471 11.111 23.7778 11.69 23.7778H43.556C44.1351 23.7778 44.6034 24.2471 44.6034 24.8252C44.6034 25.4034 44.1351 25.8726 43.5569 25.8726H43.556Z" fill="#FF7800"/>
<path d="M10.6426 31.7686C10.6426 31.1904 11.111 30.7212 11.69 30.7212H43.556C44.135 30.7212 44.6034 31.1904 44.6034 31.7686C44.6034 32.3467 44.135 32.816 43.556 32.816H11.69C11.1118 32.816 10.6426 32.3467 10.6426 31.7686V31.7686Z" fill="#FF7800"/>
</svg>
