<svg width="26" height="20" viewBox="0 0 26 20" fill="none" xmlns="http://www.w3.org/2000/svg">
<path d="M24.7 7.23404H22.1V1.2766C22.0996 0.938143 21.9625 0.613664 21.7188 0.374342C21.4751 0.135019 21.1447 0.000394173 20.8 0H1.3C0.955342 0.000394173 0.624915 0.135019 0.381205 0.374342C0.137494 0.613664 0.000401399 0.938143 0 1.2766V14.3617C0.000401399 14.7002 0.137494 15.0246 0.381205 15.264C0.624915 15.5033 0.955342 15.6379 1.3 15.6383H10.6167V18.2979H7.36667V20H15.6V18.2979H12.35V15.6383H17.3333V18.7234C17.3337 19.0619 17.4708 19.3863 17.7145 19.6257C17.9582 19.865 18.2887 19.9996 18.6333 20H24.7C25.0447 19.9996 25.3751 19.865 25.6188 19.6257C25.8625 19.3863 25.9996 19.0619 26 18.7234V8.51064C25.9996 8.17218 25.8625 7.84769 25.6188 7.60837C25.3751 7.36904 25.0447 7.23442 24.7 7.23404V7.23404ZM17.3333 8.51064V13.9362H1.73333V1.70213H20.3667V7.23404H18.6333C18.2887 7.23442 17.9582 7.36904 17.7145 7.60837C17.4708 7.84769 17.3337 8.17218 17.3333 8.51064V8.51064ZM24.2667 18.2979H19.0667V8.93617H24.2667V18.2979Z" fill="#768797"/>
</svg>
