<svg width="23" height="18" viewBox="0 0 23 18" fill="none" xmlns="http://www.w3.org/2000/svg">
<path d="M22.1786 0H0.821429C0.367076 0 0 0.365625 0 0.818182V17.1818C0 17.6344 0.367076 18 0.821429 18H22.1786C22.6329 18 23 17.6344 23 17.1818V0.818182C23 0.365625 22.6329 0 22.1786 0ZM1.84821 1.84091H21.1518V4.90909H1.84821V1.84091ZM21.1518 16.1591H1.84821V7.15909H21.1518V16.1591ZM15.0681 14.5227H19.3036C19.4165 14.5227 19.5089 14.4307 19.5089 14.3182V12.4773C19.5089 12.3648 19.4165 12.2727 19.3036 12.2727H15.0681C14.9551 12.2727 14.8627 12.3648 14.8627 12.4773V14.3182C14.8627 14.4307 14.9551 14.5227 15.0681 14.5227Z" fill="#768797"/>
</svg>
