<svg width="70" height="70" viewBox="0 0 70 70" fill="none" xmlns="http://www.w3.org/2000/svg">
<path d="M34.9994 20.125C26.8326 20.125 20.125 26.8332 20.125 34.9994C20.125 43.1661 26.8333 49.8744 34.9994 49.8744C43.1662 49.8744 49.8744 43.1661 49.8744 34.9994C49.8744 26.8332 43.1662 20.125 34.9994 20.125ZM34.9994 46.958C28.4373 46.958 23.0413 41.562 23.0413 34.9999C23.0413 28.4377 28.4373 23.0417 34.9994 23.0417C41.5615 23.0417 46.9575 28.4377 46.9575 34.9999C46.9575 41.5626 41.5621 46.958 34.9994 46.958Z" fill="#FF7800"/>
<path d="M39.083 33.2505C38.3541 33.3961 37.7707 34.1256 37.9163 34.8545V35.0001C37.9163 36.6041 36.6039 37.9163 35 37.9163C33.396 37.9163 32.0838 36.604 32.0838 35.0001C32.0838 33.3961 33.3961 32.0838 35 32.0838C35.2917 32.0838 35.7289 32.0838 36.0206 32.2294C36.7496 32.5211 37.6246 32.0838 37.9162 31.3543C38.2079 30.6254 37.7707 29.7503 37.0412 29.4587C36.3122 29.3131 35.7289 29.167 34.9993 29.167C31.7913 29.167 29.166 31.7922 29.166 35.0003C29.166 38.2083 31.7913 40.8335 34.9993 40.8335C38.2073 40.8335 40.8326 38.2083 40.8326 35.0003V34.4169C40.687 33.6879 39.9575 33.1046 39.083 33.2507L39.083 33.2505Z" fill="#FF7800"/>
<path d="M60.8132 19.8339C60.6677 19.1049 59.9381 18.5216 59.3547 18.5216C53.2299 18.5216 47.105 15.3136 47.105 8.02194C47.105 7.14687 46.5216 6.56348 45.6465 6.56348H24.21C23.7728 6.56348 23.4811 6.70902 23.1894 7.00071C22.8977 7.29239 22.7521 7.58409 22.7521 8.02132C22.7521 15.3129 16.6273 18.521 10.5024 18.521C9.62731 18.521 9.04392 19.2499 9.04392 19.9794C6.85654 38.4999 17.2107 56.2905 34.4173 63.2913C34.5629 63.2913 34.8546 63.4368 35.0007 63.4368C35.1463 63.4368 35.438 63.4368 35.5841 63.2913C52.7928 56.1458 63.2916 38.3551 60.8128 19.8347L60.8132 19.8339ZM35.001 60.3744C19.6893 53.8116 10.3558 37.9171 11.9601 21.4382C19.689 21.001 25.085 16.1883 25.6684 9.48005H44.3351C45.064 16.1883 50.46 21.0003 58.0434 21.4382C59.6461 37.9171 50.3133 53.8124 35.001 60.3744Z" fill="#FF7800"/>
<path d="M1.45983 15.4584C2.3349 15.4584 2.91829 14.875 2.91829 13.9999V4.66704C2.91829 3.64643 3.50168 2.91693 4.2306 2.91693H12.3974C13.2724 2.91693 13.8558 2.33354 13.8558 1.45846C13.8558 0.583389 13.2724 0 12.3974 0L4.2306 0.000601425C1.89772 0.000601425 0.00195312 2.04187 0.00195312 4.66712V14C0.00195312 14.8751 0.585341 15.4585 1.45982 15.4585L1.45983 15.4584Z" fill="#FF7800"/>
<path d="M13.8545 68.5408C13.8545 67.6658 13.2711 67.0824 12.396 67.0824L4.22923 67.083C3.5003 67.083 2.91692 66.2079 2.91692 65.3329V56.1455C2.91692 55.2704 2.33354 54.687 1.45846 54.687C0.583386 54.687 0 55.2704 0 56.1455V65.3329C0.000601387 67.9575 1.89623 69.9994 4.22926 69.9994H12.396C13.1249 69.9994 13.8545 69.416 13.8545 68.5409L13.8545 68.5408Z" fill="#FF7800"/>
<path d="M68.5425 54.6871C67.6674 54.6871 67.084 55.2705 67.084 56.1456V65.3329C67.084 66.3536 66.5006 67.0831 65.7717 67.0831H57.605C56.7299 67.0831 56.1465 67.6664 56.1465 68.5415C56.1465 69.4166 56.7299 70 57.605 70H65.7717C68.1052 70 70.001 67.9581 70.001 65.3335V56.1461C70.001 55.2704 69.4176 54.687 68.5425 54.687L68.5425 54.6871Z" fill="#FF7800"/>
<path d="M65.7698 9.16234e-05H57.603C56.7279 9.16234e-05 56.1445 0.58348 56.1445 1.45855C56.1445 2.33363 56.7279 2.91702 57.603 2.91702H65.7698C66.4993 2.91642 67.0827 3.64595 67.0827 4.66652V13.9994C67.0827 14.8745 67.666 15.4579 68.5411 15.4579C69.4162 15.4579 69.9996 14.8745 69.9996 13.9994L69.999 4.66652C69.999 2.04127 68.1034 0 65.7697 0L65.7698 9.16234e-05Z" fill="#FF7800"/>
</svg>
