<svg width="62" height="62" viewBox="0 0 62 62" fill="none" xmlns="http://www.w3.org/2000/svg">
<path d="M49.7501 6.6258C49.7501 7.14345 49.3305 7.56313 48.8128 7.56313C48.2947 7.56313 47.875 7.14345 47.875 6.6258C47.875 6.10815 48.2947 5.68848 48.8128 5.68848C49.3305 5.68848 49.7501 6.10815 49.7501 6.6258Z" fill="#FF7800" stroke="#FF7800" stroke-width="1.41176"/>
<path d="M46.0001 6.6258C46.0001 7.14345 45.58 7.56313 45.0623 7.56313C44.5447 7.56313 44.125 7.14345 44.125 6.6258C44.125 6.10815 44.5447 5.68848 45.0623 5.68848C45.58 5.68848 46.0001 6.10815 46.0001 6.6258Z" fill="#FF7800" stroke="#FF7800" stroke-width="1.41176"/>
<path d="M42.2511 6.6258C42.2511 7.14345 41.8314 7.56313 41.3138 7.56313C40.7961 7.56313 40.3765 7.14345 40.3765 6.6258C40.3765 6.10815 40.7961 5.68848 41.3138 5.68848C41.8314 5.68848 42.2511 6.10815 42.2511 6.6258Z" fill="#FF7800" stroke="#FF7800" stroke-width="1.41176"/>
<path d="M27.2499 51.6246H4.28173C3.50525 51.6246 2.8757 50.9951 2.8757 50.2186V12.25H53.4996V28.1867C53.4996 28.7049 53.9192 29.1245 54.4369 29.1245C54.955 29.1245 55.3747 28.7049 55.3747 28.1867V4.28108C55.3747 3.41105 55.0288 2.57617 54.4136 1.96108C53.798 1.34592 52.9636 1 52.0936 1H4.28108C3.41105 1 2.57617 1.34593 1.96108 1.96108C1.34599 2.57622 1 3.41108 1 4.28108V50.2186C1 51.0886 1.34594 51.9235 1.96108 52.5386C2.57624 53.1542 3.41108 53.4997 4.28108 53.4997H27.2492C27.7669 53.4997 28.1865 53.08 28.1865 52.5623C28.1865 52.0447 27.7669 51.6245 27.2492 51.6245L27.2499 51.6246ZM4.28173 2.8758H52.1399C52.9169 2.8758 53.5464 3.50531 53.5464 4.28184V10.3755H2.8757V4.28184C2.8757 3.50535 3.50521 2.8758 4.28173 2.8758V2.8758Z" fill="#FF7800" stroke="#FF7800" stroke-width="1.41176"/>
<path d="M44.5937 28.1875C40.2426 28.1875 36.0697 29.9162 32.993 32.993C29.9162 36.0697 28.1875 40.2427 28.1875 44.5937C28.1875 48.9447 29.9162 53.1177 32.993 56.1944C36.0697 59.2712 40.2427 60.9999 44.5937 60.9999C48.9447 60.9999 53.1177 59.2712 56.1944 56.1944C59.2712 53.1177 60.9999 48.9447 60.9999 44.5937C60.9999 40.2427 59.2712 36.0697 56.1944 32.993C53.1177 29.9162 48.9447 28.1875 44.5937 28.1875V28.1875ZM44.5937 59.1246C40.74 59.1246 37.0436 57.5939 34.3187 54.8685C31.5938 52.1436 30.0626 48.4472 30.0626 44.5934C30.0626 40.7397 31.5938 37.0433 34.3187 34.3184C37.0436 31.5935 40.74 30.0623 44.5937 30.0623C48.4474 30.0623 52.1438 31.5935 54.8687 34.3184C57.5941 37.0433 59.1248 40.7397 59.1248 44.5934C59.1248 48.4472 57.5941 52.1436 54.8687 54.8685C52.1438 57.5939 48.4474 59.1246 44.5937 59.1246V59.1246Z" fill="#FF7800" stroke="#FF7800" stroke-width="1.41176"/>
<path d="M44.5949 37.563C42.7301 37.563 40.9416 38.3034 39.6232 39.6223C38.3044 40.9406 37.564 42.7291 37.564 44.5939C37.564 46.4587 38.3043 48.2472 39.6232 49.5656C40.9416 50.8845 42.7301 51.6249 44.5949 51.6249C46.4597 51.6249 48.2482 50.8845 49.5666 49.5656C50.8855 48.2472 51.6258 46.4587 51.6258 44.5939C51.6258 42.7291 50.8855 40.9406 49.5666 39.6223C48.2482 38.3034 46.4597 37.563 44.5949 37.563V37.563ZM44.5949 49.7502C43.2275 49.7502 41.916 49.2068 40.9491 48.2398C39.9821 47.2727 39.4386 45.9613 39.4386 44.5939C39.4386 43.2265 39.982 41.915 40.9491 40.9481C41.9161 39.9811 43.2275 39.4377 44.5949 39.4377C45.9623 39.4377 47.2738 39.9811 48.2407 40.9481C49.2078 41.9151 49.7512 43.2265 49.7512 44.5939C49.7512 45.9613 49.2078 47.2728 48.2407 48.2398C47.2737 49.2068 45.9623 49.7502 44.5949 49.7502Z" fill="#FF7800" stroke="#FF7800" stroke-width="1.41176"/>
<path d="M44.5936 41.313C43.7235 41.313 42.8887 41.6584 42.2736 42.2741C41.6579 42.8892 41.3125 43.7241 41.3125 44.5941C41.3125 45.4641 41.6579 46.299 42.2736 46.9141C42.8887 47.5297 43.7236 47.8751 44.5936 47.8751C45.4636 47.8751 46.2985 47.5297 46.9136 46.9141C47.5292 46.2989 47.8747 45.4641 47.8747 44.5941C47.8747 43.7241 47.5292 42.8892 46.9136 42.2741C46.2984 41.6584 45.4636 41.313 44.5936 41.313ZM44.5936 46.0006C44.0249 46.0006 43.5122 45.6577 43.2945 45.1321C43.0767 44.607 43.197 44.0017 43.5993 43.5999C44.0012 43.1975 44.6064 43.0772 45.1315 43.295C45.6571 43.5128 46.0001 44.0255 46.0001 44.5941C46.0001 45.3706 45.3701 46.0007 44.5935 46.0007L44.5936 46.0006Z" fill="#FF7800" stroke="#FF7800" stroke-width="1.41176"/>
</svg>
