<svg width="34" height="34" viewBox="0 0 34 34" fill="none" xmlns="http://www.w3.org/2000/svg">
<path d="M12.3181 24.2534V16.9126L10.0415 14.8299L8 13.6741V22.958C8 23.6748 8.58075 24.2534 9.29546 24.2534H12.3181Z" fill="#4285F4"/>
<path d="M22.6815 24.2534H25.7041C26.421 24.2534 26.9996 23.6725 26.9996 22.9579V13.6741L24.6873 14.9979L22.6815 16.9125V24.2534Z" fill="#34A853"/>
<path d="M12.3195 16.9126L12.0098 14.0443L12.3195 11.2991L17.5012 15.1854L22.6829 11.2991L23.0295 13.8961L22.6829 16.9126L17.5012 20.7989L12.3195 16.9126Z" fill="#EA4335"/>
<path d="M22.6815 11.2991V16.9126L26.9996 13.674V11.9468C26.9996 10.3448 25.1709 9.43155 23.8906 10.3923L22.6815 11.2991Z" fill="#FBBC04"/>
<path d="M8 13.6741L9.98598 15.1636L12.3181 16.9126V11.2991L11.109 10.3923C9.82649 9.43151 8 10.3448 8 11.9467V13.674V13.6741Z" fill="#C5221F"/>
<circle cx="17" cy="17" r="16.5" stroke="#768797"/>
</svg>
