<svg width="23" height="23" viewBox="0 0 23 23" fill="none" xmlns="http://www.w3.org/2000/svg">
<g clip-path="url(#clip0_2158_29594)">
<path d="M11.5 2.07C14.5728 2.07 14.9316 2.0792 16.146 2.1344C17.2684 2.1896 17.8756 2.3736 18.2804 2.53C18.814 2.7416 19.2004 2.99 19.6052 3.3948C20.01 3.7996 20.2584 4.1768 20.47 4.7196C20.6264 5.1244 20.8104 5.7316 20.8656 6.854C20.9208 8.0684 20.93 8.4272 20.93 11.5C20.93 14.5728 20.9208 14.9316 20.8656 16.146C20.8104 17.2684 20.6264 17.8756 20.47 18.2804C20.2584 18.814 20.01 19.2004 19.6052 19.6052C19.2004 20.01 18.8232 20.2584 18.2804 20.47C17.8756 20.6264 17.2684 20.8104 16.146 20.8656C14.9316 20.9208 14.5728 20.93 11.5 20.93C8.4272 20.93 8.0684 20.9208 6.854 20.8656C5.7316 20.8104 5.1244 20.6264 4.7196 20.47C4.186 20.2584 3.7996 20.01 3.3948 19.6052C2.99 19.2004 2.7416 18.8232 2.53 18.2804C2.3736 17.8756 2.1896 17.2684 2.1344 16.146C2.0792 14.9316 2.07 14.5728 2.07 11.5C2.07 8.4272 2.0792 8.0684 2.1344 6.854C2.1896 5.7316 2.3736 5.1244 2.53 4.7196C2.7416 4.186 2.99 3.7996 3.3948 3.3948C3.7996 2.99 4.1768 2.7416 4.7196 2.53C5.1244 2.3736 5.7316 2.1896 6.854 2.1344C8.0684 2.0792 8.4272 2.07 11.5 2.07ZM11.5 0C8.3812 0 7.9856 0.0092 6.762 0.0736C5.5384 0.1288 4.7012 0.322 3.9652 0.6072C3.2108 0.9016 2.5668 1.288 1.932 1.932C1.288 2.5668 0.9016 3.2108 0.6072 3.9652C0.322 4.7012 0.1288 5.5292 0.0736 6.7528C0.0092 7.9856 0 8.3812 0 11.5C0 14.6188 0.0092 15.0144 0.0736 16.238C0.1288 17.4616 0.322 18.2988 0.6072 19.0256C0.9016 19.7892 1.288 20.4332 1.932 21.068C2.5668 21.7028 3.2108 22.0984 3.9652 22.3928C4.7012 22.678 5.5292 22.8712 6.7528 22.9264C7.9764 22.9816 8.372 23 11.4908 23C14.6096 23 15.0052 22.9908 16.2288 22.9264C17.4524 22.8712 18.2896 22.678 19.0164 22.3928C19.7708 22.0984 20.4148 21.7028 21.0496 21.068C21.6844 20.4332 22.08 19.7892 22.3744 19.0348C22.6596 18.2988 22.8528 17.4708 22.908 16.2472C22.9632 15.0236 22.9816 14.628 22.9816 11.5092C22.9816 8.3904 22.9724 7.9948 22.908 6.7712C22.8528 5.5476 22.6596 4.7104 22.3744 3.9836C22.0984 3.2108 21.712 2.5668 21.068 1.932C20.4332 1.2972 19.7892 0.9016 19.0348 0.6072C18.2988 0.322 17.4708 0.1288 16.2472 0.0736C15.0144 0.0092 14.6188 0 11.5 0Z" fill="#9A9AB4"/>
<path d="M11.4997 5.59332C8.23366 5.59332 5.59326 8.23372 5.59326 11.4997C5.59326 14.7657 8.23366 17.4061 11.4997 17.4061C14.7657 17.4061 17.4061 14.7657 17.4061 11.4997C17.4061 8.23372 14.7657 5.59332 11.4997 5.59332V5.59332ZM11.4997 15.3361C9.38366 15.3361 7.66326 13.6157 7.66326 11.4997C7.66326 9.38372 9.38366 7.66332 11.4997 7.66332C13.6157 7.66332 15.3361 9.38372 15.3361 11.4997C15.3361 13.6157 13.6157 15.3361 11.4997 15.3361V15.3361Z" fill="#9A9AB4"/>
<path d="M17.6368 6.74346C18.399 6.74346 19.0168 6.12561 19.0168 5.36346C19.0168 4.60131 18.399 3.98346 17.6368 3.98346C16.8747 3.98346 16.2568 4.60131 16.2568 5.36346C16.2568 6.12561 16.8747 6.74346 17.6368 6.74346Z" fill="#9A9AB4"/>
</g>
<defs>
<clipPath id="clip0_2158_29594">
<rect width="23" height="23" fill="white"/>
</clipPath>
</defs>
</svg>
