<svg width="205" height="43" viewBox="0 0 205 43" fill="none" xmlns="http://www.w3.org/2000/svg">
<path d="M32.258 28.7705V25.8852C32.258 25.12 31.9033 24.3862 31.272 23.8451C30.6406 23.304 29.7843 23 28.8915 23C27.9986 23 27.1423 23.304 26.511 23.8451C25.8796 24.3862 25.5249 25.12 25.5249 25.8852V28.7705C25.5249 29.5357 25.8796 30.2696 26.511 30.8107C27.1423 31.3518 27.9986 31.6557 28.8915 31.6557C29.7843 31.6557 30.6406 31.3518 31.272 30.8107C31.9033 30.2696 32.258 29.5357 32.258 28.7705ZM23 27.3279H25.5249H23ZM32.258 27.3279H34.7829H32.258ZM25.5249 26.6066H32.258H25.5249ZM31.9432 24.7138L33.9413 23L31.9432 24.7138ZM31.9432 29.9433L33.9413 31.6557L31.9432 29.9433ZM25.8414 29.9433L23.8416 31.6557L25.8414 29.9433ZM25.8414 24.7138L23.8416 23L25.8414 24.7138Z" fill="#FF7800"/>
<path d="M23 27.3279H25.5249M32.258 27.3279H34.7829M25.5249 26.6066H32.258M31.9432 24.7138L33.9413 23M31.9432 29.9433L33.9413 31.6557M25.8414 29.9433L23.8416 31.6557M25.8414 24.7138L23.8416 23M32.258 28.7705V25.8852C32.258 25.12 31.9033 24.3862 31.272 23.8451C30.6406 23.304 29.7843 23 28.8915 23C27.9986 23 27.1423 23.304 26.511 23.8451C25.8796 24.3862 25.5249 25.12 25.5249 25.8852V28.7705C25.5249 29.5357 25.8796 30.2696 26.511 30.8107C27.1423 31.3518 27.9986 31.6557 28.8915 31.6557C29.7843 31.6557 30.6406 31.3518 31.272 30.8107C31.9033 30.2696 32.258 29.5357 32.258 28.7705Z" stroke="#FF7800" stroke-linecap="round" stroke-linejoin="round"/>
<path d="M20.3797 23.8112L17.0681 20.5001C17.0002 20.432 16.9196 20.378 16.8309 20.3411C16.7421 20.3043 16.6469 20.2853 16.5508 20.2853C16.4547 20.2853 16.3595 20.3043 16.2708 20.3411C16.182 20.378 16.1014 20.432 16.0336 20.5001L3.22931 32.5802C3.1583 32.6471 3.10143 32.7276 3.06206 32.8169C3.02269 32.9062 3.00162 33.0025 3.00009 33.1001C2.99856 33.1976 3.0166 33.2945 3.05315 33.385C3.08969 33.4755 3.14401 33.5577 3.21287 33.6269L7.23227 37.6603C7.30127 37.7295 7.38346 37.7841 7.47396 37.821C7.56447 37.8579 7.66146 37.8762 7.75918 37.8749C7.8569 37.8736 7.95336 37.8527 8.04286 37.8134C8.13235 37.7741 8.21305 37.7173 8.28017 37.6463L20.3785 24.8451C20.4466 24.7773 20.5006 24.6968 20.5375 24.6081C20.5744 24.5195 20.5935 24.4244 20.5936 24.3284C20.5937 24.2323 20.5749 24.1372 20.5382 24.0485C20.5015 23.9597 20.4476 23.8791 20.3797 23.8112ZM32.8578 20.3078L30.1869 17.6558C30.0648 17.534 29.9197 17.4377 29.7601 17.3723C29.6005 17.3069 29.4296 17.2738 29.2571 17.2748C28.9777 17.2751 28.7054 17.3633 28.4788 17.5268C28.4788 17.5006 28.4824 17.4751 28.4842 17.4525C28.5116 17.057 28.5542 16.4594 28.1678 15.9178C27.7084 15.2986 27.204 14.714 26.6586 14.1689C26.6572 14.1671 26.6555 14.1655 26.6538 14.164C25.8432 13.3656 24.079 11.8619 21.3765 10.7598C20.3511 10.3395 19.2534 10.1239 18.1452 10.1251C16.2246 10.1251 14.7641 10.9917 14.2049 11.5053C13.6542 12.0078 13.293 12.6844 13.1819 13.4216L14.1556 14.0198C14.1556 14.0198 14.6461 13.8981 14.999 13.8135C15.3678 13.7348 15.7461 13.7112 16.1218 13.7435C16.9245 13.8098 17.8738 14.2084 18.2937 14.5401C19.0057 15.1127 19.3483 15.8843 19.4049 17.0406C19.417 17.298 18.8255 18.3398 17.9346 19.465C17.8605 19.5585 17.8234 19.676 17.8302 19.7952C17.8371 19.9143 17.8874 20.0268 17.9718 20.1112L20.7327 22.8722C20.8211 22.9599 20.9398 23.0103 21.0644 23.0131C21.1889 23.016 21.3097 22.971 21.4021 22.8874C22.1366 22.218 23.2575 21.1835 23.5119 21.0259C23.9798 20.738 24.3145 20.6827 24.4064 20.6729C24.6449 20.6496 24.8847 20.7002 25.0935 20.8178C25.0945 20.8282 25.0934 20.8387 25.0901 20.8486C25.0869 20.8586 25.0816 20.8678 25.0746 20.8756L24.9639 20.9808L24.9456 20.9979C24.8232 21.1198 24.7262 21.2647 24.6601 21.4243C24.5939 21.5839 24.56 21.755 24.5603 21.9278C24.5606 22.1005 24.5951 22.2715 24.6617 22.4309C24.7283 22.5902 24.8259 22.7348 24.9486 22.8564L27.6232 25.5145C27.7144 25.6051 27.8378 25.656 27.9664 25.656C28.095 25.656 28.2184 25.6051 28.3096 25.5145L32.8542 20.9991C32.9 20.9541 32.9365 20.9004 32.9616 20.8412C32.9866 20.782 32.9997 20.7185 33 20.6542C33.0003 20.5899 32.9879 20.5262 32.9635 20.4668C32.9391 20.4073 32.9032 20.3533 32.8578 20.3078Z" fill="#313E7C"/>
<path d="M42.04 16.288C41.944 15.984 41.808 15.752 41.632 15.592C41.456 15.416 41.272 15.296 41.08 15.232C40.888 15.168 40.712 15.136 40.552 15.136H40V13.864H47.92V15.136H46.816C46.592 15.136 46.376 15.192 46.168 15.304C45.976 15.416 45.88 15.624 45.88 15.928C45.88 16.024 45.888 16.136 45.904 16.264C45.936 16.392 45.968 16.52 46 16.648C46.032 16.76 46.064 16.864 46.096 16.96L48.544 24.352C48.608 24.528 48.672 24.744 48.736 25C48.816 25.24 48.888 25.504 48.952 25.792C49.016 26.064 49.072 26.336 49.12 26.608C49.184 26.864 49.224 27.104 49.24 27.328C49.288 27.056 49.352 26.752 49.432 26.416C49.512 26.08 49.6 25.736 49.696 25.384C49.808 25.032 49.912 24.712 50.008 24.424L52.48 17.128C52.528 17.016 52.568 16.888 52.6 16.744C52.648 16.584 52.688 16.432 52.72 16.288C52.752 16.144 52.768 16.032 52.768 15.952C52.768 15.68 52.68 15.48 52.504 15.352C52.328 15.208 52.096 15.136 51.808 15.136H50.56V13.864H56.752V15.136H55.6C55.456 15.136 55.328 15.184 55.216 15.28C55.104 15.36 54.992 15.528 54.88 15.784C54.768 16.024 54.624 16.392 54.448 16.888L49.552 31H47.152L42.04 16.288ZM57.1658 31V29.728H57.4538C57.6938 29.728 57.9418 29.696 58.1978 29.632C58.4698 29.552 58.6938 29.4 58.8698 29.176C59.0618 28.952 59.1578 28.616 59.1578 28.168V20.872C59.1578 20.44 59.0618 20.12 58.8698 19.912C58.6778 19.704 58.4458 19.568 58.1738 19.504C57.9178 19.44 57.6778 19.408 57.4538 19.408H57.1658V18.136H62.8058V28.168C62.8058 28.616 62.8938 28.952 63.0698 29.176C63.2618 29.4 63.4938 29.552 63.7658 29.632C64.0378 29.696 64.2858 29.728 64.5098 29.728H64.7978V31H57.1658ZM60.8618 15.976C60.2858 15.976 59.7978 15.84 59.3978 15.568C59.0138 15.28 58.8218 14.84 58.8218 14.248C58.8218 13.64 59.0218 13.2 59.4218 12.928C59.8218 12.656 60.3098 12.52 60.8858 12.52C61.4298 12.52 61.9018 12.656 62.3018 12.928C62.7178 13.2 62.9258 13.64 62.9258 14.248C62.9258 14.84 62.7178 15.28 62.3018 15.568C61.9018 15.84 61.4218 15.976 60.8618 15.976ZM65.6753 31V29.728H65.7473C66.1153 29.728 66.4353 29.688 66.7073 29.608C66.9793 29.528 67.1953 29.368 67.3553 29.128C67.5153 28.872 67.5953 28.496 67.5953 28V21.04C67.5953 20.56 67.5233 20.208 67.3793 19.984C67.2353 19.744 67.0353 19.592 66.7793 19.528C66.5233 19.448 66.2193 19.408 65.8673 19.408H65.7953V18.136H70.6433L71.1233 20.008H71.2433C71.4513 19.528 71.6913 19.128 71.9633 18.808C72.2353 18.488 72.5793 18.248 72.9953 18.088C73.4273 17.928 73.9713 17.848 74.6273 17.848C75.5713 17.848 76.2673 18.016 76.7153 18.352C77.1633 18.688 77.3873 19.168 77.3873 19.792C77.3873 20.528 77.1153 21.104 76.5713 21.52C76.0433 21.92 75.2993 22.12 74.3393 22.12C74.3393 21.672 74.2993 21.304 74.2193 21.016C74.1553 20.728 74.0353 20.512 73.8593 20.368C73.6993 20.208 73.4673 20.128 73.1633 20.128C72.7473 20.128 72.4113 20.272 72.1553 20.56C71.8993 20.848 71.7073 21.208 71.5793 21.64C71.4513 22.056 71.3633 22.48 71.3153 22.912C71.2673 23.344 71.2433 23.696 71.2433 23.968V28.12C71.2433 28.584 71.3153 28.936 71.4593 29.176C71.6033 29.4 71.8033 29.552 72.0593 29.632C72.3153 29.696 72.6033 29.728 72.9233 29.728H73.6913V31H65.6753ZM83.9498 31.24C82.7018 31.24 81.7418 30.856 81.0698 30.088C80.3978 29.304 80.0618 28.104 80.0618 26.488V21.112C80.0618 20.648 80.0058 20.296 79.8938 20.056C79.7818 19.8 79.6058 19.632 79.3658 19.552C79.1258 19.456 78.8138 19.408 78.4298 19.408H78.3818V18.136H83.7098V25.816C83.7098 26.504 83.7578 27.104 83.8538 27.616C83.9658 28.112 84.1578 28.504 84.4298 28.792C84.7018 29.064 85.0698 29.2 85.5338 29.2C86.0458 29.2 86.4618 29.056 86.7818 28.768C87.1018 28.464 87.3338 28.04 87.4778 27.496C87.6378 26.936 87.7178 26.288 87.7178 25.552V20.944C87.7178 20.48 87.6378 20.144 87.4778 19.936C87.3178 19.712 87.1098 19.568 86.8538 19.504C86.5978 19.44 86.3098 19.408 85.9898 19.408H85.9178V18.136H91.3658V28.216C91.3658 28.68 91.4298 29.024 91.5578 29.248C91.7018 29.456 91.8938 29.592 92.1338 29.656C92.3898 29.704 92.6698 29.728 92.9738 29.728H93.1658V31H88.3898L87.8618 29.296H87.7418C87.5018 29.712 87.2378 30.048 86.9498 30.304C86.6778 30.56 86.3818 30.76 86.0618 30.904C85.7418 31.032 85.4058 31.12 85.0538 31.168C84.7018 31.216 84.3338 31.24 83.9498 31.24ZM99.3096 31.24C98.1576 31.24 97.2216 31.12 96.5016 30.88C95.7976 30.624 95.2856 30.288 94.9656 29.872C94.6456 29.44 94.4856 28.96 94.4856 28.432C94.4856 27.904 94.6136 27.512 94.8696 27.256C95.1256 27 95.4296 26.832 95.7816 26.752C96.1336 26.656 96.4456 26.608 96.7176 26.608C96.7176 27.264 96.8216 27.84 97.0296 28.336C97.2536 28.816 97.5576 29.184 97.9416 29.44C98.3416 29.696 98.7976 29.824 99.3096 29.824C100.142 29.824 100.742 29.664 101.11 29.344C101.494 29.024 101.686 28.64 101.686 28.192C101.686 27.84 101.598 27.536 101.422 27.28C101.246 27.008 100.942 26.76 100.51 26.536C100.078 26.296 99.4856 26.048 98.7336 25.792C97.8696 25.488 97.1416 25.16 96.5496 24.808C95.9576 24.44 95.5016 24.008 95.1816 23.512C94.8776 23 94.7256 22.384 94.7256 21.664C94.7256 20.384 95.1976 19.432 96.1416 18.808C97.0856 18.168 98.3336 17.848 99.8856 17.848C100.894 17.848 101.702 17.96 102.31 18.184C102.934 18.392 103.382 18.672 103.654 19.024C103.942 19.36 104.086 19.712 104.086 20.08C104.086 20.624 103.894 21.04 103.51 21.328C103.142 21.6 102.518 21.736 101.638 21.736C101.638 20.936 101.462 20.32 101.11 19.888C100.758 19.44 100.23 19.216 99.5256 19.216C99.1896 19.216 98.8696 19.272 98.5656 19.384C98.2776 19.496 98.0376 19.664 97.8456 19.888C97.6696 20.096 97.5816 20.368 97.5816 20.704C97.5816 21.04 97.6696 21.336 97.8456 21.592C98.0376 21.848 98.3736 22.096 98.8536 22.336C99.3336 22.576 100.006 22.848 100.87 23.152C101.59 23.392 102.222 23.688 102.766 24.04C103.31 24.376 103.734 24.792 104.038 25.288C104.358 25.768 104.518 26.344 104.518 27.016C104.518 28.344 104.062 29.384 103.15 30.136C102.254 30.872 100.974 31.24 99.3096 31.24Z" fill="#313E7C"/>
<path d="M115.108 31.24C113.252 31.24 111.708 30.872 110.476 30.136C109.244 29.4 108.324 28.376 107.716 27.064C107.108 25.736 106.804 24.184 106.804 22.408C106.804 20.68 107.116 19.16 107.74 17.848C108.364 16.52 109.292 15.488 110.524 14.752C111.756 14 113.276 13.624 115.084 13.624C116.316 13.624 117.332 13.752 118.132 14.008C118.948 14.248 119.556 14.576 119.956 14.992C120.356 15.408 120.556 15.88 120.556 16.408C120.556 17 120.3 17.496 119.788 17.896C119.276 18.296 118.532 18.496 117.556 18.496C117.556 17.968 117.476 17.448 117.316 16.936C117.156 16.424 116.884 16 116.5 15.664C116.116 15.328 115.588 15.16 114.916 15.16C113.908 15.16 113.1 15.448 112.492 16.024C111.9 16.584 111.476 17.4 111.22 18.472C110.964 19.544 110.836 20.856 110.836 22.408C110.836 23.944 110.988 25.224 111.292 26.248C111.612 27.272 112.124 28.04 112.828 28.552C113.548 29.064 114.5 29.32 115.684 29.32C116.468 29.32 117.14 29.208 117.7 28.984C118.26 28.744 118.732 28.448 119.116 28.096C119.516 27.744 119.852 27.392 120.124 27.04C120.252 27.136 120.348 27.28 120.412 27.472C120.492 27.664 120.532 27.864 120.532 28.072C120.532 28.408 120.436 28.76 120.244 29.128C120.068 29.496 119.772 29.84 119.356 30.16C118.94 30.48 118.38 30.744 117.676 30.952C116.988 31.144 116.132 31.24 115.108 31.24ZM121.996 31V29.728H122.068C122.436 29.728 122.756 29.688 123.028 29.608C123.3 29.528 123.516 29.368 123.676 29.128C123.836 28.872 123.916 28.496 123.916 28V21.04C123.916 20.56 123.844 20.208 123.7 19.984C123.556 19.744 123.356 19.592 123.1 19.528C122.844 19.448 122.54 19.408 122.188 19.408H122.116V18.136H126.964L127.444 20.008H127.564C127.772 19.528 128.012 19.128 128.284 18.808C128.556 18.488 128.9 18.248 129.316 18.088C129.748 17.928 130.292 17.848 130.948 17.848C131.892 17.848 132.588 18.016 133.036 18.352C133.484 18.688 133.708 19.168 133.708 19.792C133.708 20.528 133.436 21.104 132.892 21.52C132.364 21.92 131.62 22.12 130.66 22.12C130.66 21.672 130.62 21.304 130.54 21.016C130.476 20.728 130.356 20.512 130.18 20.368C130.02 20.208 129.788 20.128 129.484 20.128C129.068 20.128 128.732 20.272 128.476 20.56C128.22 20.848 128.028 21.208 127.9 21.64C127.772 22.056 127.684 22.48 127.636 22.912C127.588 23.344 127.564 23.696 127.564 23.968V28.12C127.564 28.584 127.636 28.936 127.78 29.176C127.924 29.4 128.124 29.552 128.38 29.632C128.636 29.696 128.924 29.728 129.244 29.728H130.012V31H121.996ZM140.27 31.24C139.022 31.24 138.062 30.856 137.39 30.088C136.718 29.304 136.382 28.104 136.382 26.488V21.112C136.382 20.648 136.326 20.296 136.214 20.056C136.102 19.8 135.926 19.632 135.686 19.552C135.446 19.456 135.134 19.408 134.75 19.408H134.702V18.136H140.03V25.816C140.03 26.504 140.078 27.104 140.174 27.616C140.286 28.112 140.478 28.504 140.75 28.792C141.022 29.064 141.39 29.2 141.854 29.2C142.366 29.2 142.782 29.056 143.102 28.768C143.422 28.464 143.654 28.04 143.798 27.496C143.958 26.936 144.038 26.288 144.038 25.552V20.944C144.038 20.48 143.958 20.144 143.798 19.936C143.638 19.712 143.43 19.568 143.174 19.504C142.918 19.44 142.63 19.408 142.31 19.408H142.238V18.136H147.686V28.216C147.686 28.68 147.75 29.024 147.878 29.248C148.022 29.456 148.214 29.592 148.454 29.656C148.71 29.704 148.99 29.728 149.294 29.728H149.486V31H144.71L144.182 29.296H144.062C143.822 29.712 143.558 30.048 143.27 30.304C142.998 30.56 142.702 30.76 142.382 30.904C142.062 31.032 141.726 31.12 141.374 31.168C141.022 31.216 140.654 31.24 140.27 31.24ZM155.63 31.24C154.478 31.24 153.542 31.12 152.822 30.88C152.118 30.624 151.606 30.288 151.286 29.872C150.966 29.44 150.806 28.96 150.806 28.432C150.806 27.904 150.934 27.512 151.19 27.256C151.446 27 151.75 26.832 152.102 26.752C152.454 26.656 152.766 26.608 153.038 26.608C153.038 27.264 153.142 27.84 153.35 28.336C153.574 28.816 153.878 29.184 154.262 29.44C154.662 29.696 155.118 29.824 155.63 29.824C156.462 29.824 157.062 29.664 157.43 29.344C157.814 29.024 158.006 28.64 158.006 28.192C158.006 27.84 157.918 27.536 157.742 27.28C157.566 27.008 157.262 26.76 156.83 26.536C156.398 26.296 155.806 26.048 155.054 25.792C154.19 25.488 153.462 25.16 152.87 24.808C152.278 24.44 151.822 24.008 151.502 23.512C151.198 23 151.046 22.384 151.046 21.664C151.046 20.384 151.518 19.432 152.462 18.808C153.406 18.168 154.654 17.848 156.206 17.848C157.214 17.848 158.022 17.96 158.63 18.184C159.254 18.392 159.702 18.672 159.974 19.024C160.262 19.36 160.406 19.712 160.406 20.08C160.406 20.624 160.214 21.04 159.83 21.328C159.462 21.6 158.838 21.736 157.958 21.736C157.958 20.936 157.782 20.32 157.43 19.888C157.078 19.44 156.55 19.216 155.846 19.216C155.51 19.216 155.19 19.272 154.886 19.384C154.598 19.496 154.358 19.664 154.166 19.888C153.99 20.096 153.902 20.368 153.902 20.704C153.902 21.04 153.99 21.336 154.166 21.592C154.358 21.848 154.694 22.096 155.174 22.336C155.654 22.576 156.326 22.848 157.19 23.152C157.91 23.392 158.542 23.688 159.086 24.04C159.63 24.376 160.054 24.792 160.358 25.288C160.678 25.768 160.838 26.344 160.838 27.016C160.838 28.344 160.382 29.384 159.47 30.136C158.574 30.872 157.294 31.24 155.63 31.24ZM162.285 31V29.728H162.333C162.701 29.728 163.021 29.688 163.293 29.608C163.581 29.528 163.805 29.376 163.965 29.152C164.141 28.912 164.229 28.552 164.229 28.072L164.205 15.496C164.205 15.064 164.109 14.744 163.917 14.536C163.725 14.328 163.493 14.192 163.221 14.128C162.965 14.064 162.725 14.032 162.501 14.032H162.213V12.76H167.853V16.72C167.853 17.136 167.837 17.584 167.805 18.064C167.773 18.528 167.741 18.928 167.709 19.264C167.677 19.6 167.661 19.768 167.661 19.768H167.877C168.197 19.16 168.541 18.72 168.909 18.448C169.293 18.176 169.701 18.008 170.133 17.944C170.581 17.864 171.053 17.824 171.549 17.824C172.781 17.824 173.749 18.192 174.453 18.928C175.157 19.664 175.509 20.84 175.509 22.456V28.024C175.509 28.52 175.565 28.888 175.677 29.128C175.805 29.368 175.989 29.528 176.229 29.608C176.469 29.688 176.765 29.728 177.117 29.728H177.189V31H171.861V23.104C171.861 22.064 171.717 21.264 171.429 20.704C171.141 20.144 170.645 19.864 169.941 19.864C169.413 19.864 168.997 20.04 168.693 20.392C168.389 20.728 168.173 21.184 168.045 21.76C167.917 22.32 167.853 22.928 167.853 23.584L167.877 28.168C167.877 28.616 167.941 28.952 168.069 29.176C168.213 29.4 168.413 29.552 168.669 29.632C168.925 29.696 169.229 29.728 169.581 29.728H169.653V31H162.285ZM185.157 31.24C183.125 31.24 181.581 30.664 180.525 29.512C179.469 28.344 178.941 26.72 178.941 24.64C178.941 22.384 179.461 20.688 180.501 19.552C181.541 18.4 183.005 17.824 184.893 17.824C186.637 17.824 188.005 18.312 188.997 19.288C190.005 20.264 190.509 21.704 190.509 23.608V24.832H182.637C182.669 25.904 182.813 26.784 183.069 27.472C183.325 28.144 183.685 28.64 184.148 28.96C184.628 29.28 185.197 29.44 185.853 29.44C186.413 29.44 186.909 29.36 187.341 29.2C187.789 29.024 188.173 28.792 188.493 28.504C188.813 28.2 189.061 27.864 189.237 27.496C189.461 27.608 189.621 27.768 189.717 27.976C189.829 28.168 189.885 28.4 189.885 28.672C189.885 29.12 189.717 29.544 189.381 29.944C189.045 30.328 188.525 30.64 187.821 30.88C187.133 31.12 186.245 31.24 185.157 31.24ZM186.837 23.296C186.837 22.48 186.773 21.784 186.645 21.208C186.517 20.616 186.317 20.168 186.045 19.864C185.773 19.544 185.405 19.384 184.941 19.384C184.493 19.384 184.101 19.536 183.765 19.84C183.445 20.128 183.189 20.568 182.997 21.16C182.821 21.736 182.717 22.448 182.685 23.296H186.837ZM192.003 31V29.728H192.075C192.443 29.728 192.763 29.688 193.035 29.608C193.307 29.528 193.523 29.368 193.683 29.128C193.843 28.872 193.923 28.496 193.923 28V21.04C193.923 20.56 193.851 20.208 193.707 19.984C193.563 19.744 193.363 19.592 193.107 19.528C192.851 19.448 192.547 19.408 192.195 19.408H192.123V18.136H196.971L197.451 20.008H197.571C197.779 19.528 198.019 19.128 198.291 18.808C198.563 18.488 198.907 18.248 199.323 18.088C199.755 17.928 200.299 17.848 200.955 17.848C201.899 17.848 202.595 18.016 203.043 18.352C203.491 18.688 203.715 19.168 203.715 19.792C203.715 20.528 203.443 21.104 202.899 21.52C202.371 21.92 201.627 22.12 200.667 22.12C200.667 21.672 200.627 21.304 200.547 21.016C200.483 20.728 200.363 20.512 200.187 20.368C200.027 20.208 199.795 20.128 199.491 20.128C199.075 20.128 198.739 20.272 198.483 20.56C198.227 20.848 198.035 21.208 197.907 21.64C197.779 22.056 197.691 22.48 197.643 22.912C197.595 23.344 197.571 23.696 197.571 23.968V28.12C197.571 28.584 197.643 28.936 197.787 29.176C197.931 29.4 198.131 29.552 198.387 29.632C198.643 29.696 198.931 29.728 199.251 29.728H200.019V31H192.003Z" fill="#FF7800"/>
</svg>
