<svg width="205" height="41" viewBox="0 0 205 41" fill="none" xmlns="http://www.w3.org/2000/svg">
<g clip-path="url(#clip0_2158_28551)">
<path d="M32.258 27.7705V24.8852C32.258 24.12 31.9033 23.3862 31.272 22.8451C30.6406 22.304 29.7843 22 28.8915 22C27.9986 22 27.1423 22.304 26.511 22.8451C25.8796 23.3862 25.5249 24.12 25.5249 24.8852V27.7705C25.5249 28.5357 25.8796 29.2696 26.511 29.8107C27.1423 30.3518 27.9986 30.6557 28.8915 30.6557C29.7843 30.6557 30.6406 30.3518 31.272 29.8107C31.9033 29.2696 32.258 28.5357 32.258 27.7705ZM23 26.3279H25.5249H23ZM32.258 26.3279H34.7829H32.258ZM25.5249 25.6066H32.258H25.5249ZM31.9432 23.7138L33.9413 22L31.9432 23.7138ZM31.9432 28.9433L33.9413 30.6557L31.9432 28.9433ZM25.8414 28.9433L23.8416 30.6557L25.8414 28.9433ZM25.8414 23.7138L23.8416 22L25.8414 23.7138Z" fill="#FF7800"/>
<path d="M23 26.3279H25.5249M32.258 26.3279H34.7829M25.5249 25.6066H32.258M31.9432 23.7138L33.9413 22M31.9432 28.9433L33.9413 30.6557M25.8414 28.9433L23.8416 30.6557M25.8414 23.7138L23.8416 22M32.258 27.7705V24.8852C32.258 24.12 31.9033 23.3862 31.272 22.8451C30.6406 22.304 29.7843 22 28.8915 22C27.9986 22 27.1423 22.304 26.511 22.8451C25.8796 23.3862 25.5249 24.12 25.5249 24.8852V27.7705C25.5249 28.5357 25.8796 29.2696 26.511 29.8107C27.1423 30.3518 27.9986 30.6557 28.8915 30.6557C29.7843 30.6557 30.6406 30.3518 31.272 29.8107C31.9033 29.2696 32.258 28.5357 32.258 27.7705Z" stroke="#FF7800" stroke-linecap="round" stroke-linejoin="round"/>
<path d="M20.3924 22.2909L16.9911 18.8903C16.9214 18.8203 16.8386 18.7649 16.7475 18.727C16.6563 18.6891 16.5586 18.6697 16.4599 18.6697C16.3612 18.6697 16.2634 18.6891 16.1722 18.727C16.0811 18.7649 15.9983 18.8203 15.9286 18.8903L2.77799 31.2971C2.70506 31.3659 2.64666 31.4486 2.60622 31.5403C2.56579 31.632 2.54415 31.7309 2.54257 31.8311C2.541 31.9313 2.55953 32.0308 2.59706 32.1237C2.6346 32.2167 2.69038 32.3011 2.76111 32.3721L6.88924 36.5146C6.9601 36.5857 7.04451 36.6418 7.13747 36.6797C7.23043 36.7176 7.33004 36.7364 7.4304 36.7351C7.53077 36.7337 7.62984 36.7122 7.72175 36.6719C7.81367 36.6316 7.89655 36.5732 7.96549 36.5003L20.3911 23.3528C20.461 23.2832 20.5165 23.2005 20.5544 23.1094C20.5923 23.0184 20.6119 22.9207 20.612 22.8221C20.6121 22.7234 20.5928 22.6257 20.5551 22.5346C20.5174 22.4434 20.4621 22.3606 20.3924 22.2909ZM33.208 18.6928L30.4649 15.969C30.3394 15.844 30.1904 15.745 30.0265 15.6778C29.8626 15.6107 29.687 15.5767 29.5099 15.5778C29.2229 15.5781 28.9432 15.6686 28.7105 15.8365C28.7105 15.8096 28.7142 15.7834 28.7161 15.7603C28.7442 15.354 28.788 14.7403 28.3911 14.184C27.9193 13.548 27.4012 12.9476 26.8411 12.3877C26.8396 12.3859 26.8379 12.3843 26.8361 12.3828C26.0036 11.5627 24.1917 10.0184 21.4161 8.8865C20.363 8.45482 19.2355 8.23337 18.0974 8.23462C16.1249 8.23462 14.6249 9.12462 14.0505 9.65212C13.4849 10.1682 13.1139 10.8631 12.9999 11.6202L13.9999 12.2346C13.9999 12.2346 14.5036 12.1096 14.8661 12.0227C15.2448 11.9419 15.6334 11.9177 16.0192 11.9509C16.8436 12.019 17.8186 12.4284 18.2499 12.769C18.9811 13.3571 19.333 14.1496 19.3911 15.3371C19.4036 15.6015 18.7961 16.6715 17.8811 17.8271C17.805 17.9232 17.7668 18.0439 17.7739 18.1663C17.7809 18.2886 17.8326 18.4041 17.9192 18.4909L20.7549 21.3265C20.8457 21.4166 20.9676 21.4684 21.0955 21.4713C21.2234 21.4742 21.3475 21.428 21.4424 21.3421C22.1967 20.6546 23.348 19.5921 23.6092 19.4303C24.0899 19.1346 24.4336 19.0778 24.528 19.0678C24.7729 19.0438 25.0192 19.0957 25.2336 19.2165C25.2347 19.2272 25.2335 19.238 25.2302 19.2482C25.2268 19.2584 25.2214 19.2679 25.2142 19.2759L25.1005 19.384L25.0817 19.4015C24.956 19.5267 24.8564 19.6756 24.7885 19.8395C24.7206 20.0034 24.6857 20.1791 24.686 20.3565C24.6863 20.5339 24.7217 20.7096 24.7902 20.8732C24.8586 21.0369 24.9588 21.1854 25.0849 21.3103L27.8317 24.0403C27.9254 24.1334 28.0521 24.1856 28.1842 24.1856C28.3163 24.1856 28.4431 24.1334 28.5367 24.0403L33.2042 19.4028C33.2513 19.3565 33.2888 19.3014 33.3145 19.2406C33.3403 19.1798 33.3537 19.1145 33.354 19.0485C33.3544 18.9825 33.3416 18.9171 33.3166 18.856C33.2915 18.795 33.2546 18.7395 33.208 18.6928Z" fill="#FEFEFE"/>
</g>
<path d="M42.04 15.288C41.944 14.984 41.808 14.752 41.632 14.592C41.456 14.416 41.272 14.296 41.08 14.232C40.888 14.168 40.712 14.136 40.552 14.136H40V12.864H47.92V14.136H46.816C46.592 14.136 46.376 14.192 46.168 14.304C45.976 14.416 45.88 14.624 45.88 14.928C45.88 15.024 45.888 15.136 45.904 15.264C45.936 15.392 45.968 15.52 46 15.648C46.032 15.76 46.064 15.864 46.096 15.96L48.544 23.352C48.608 23.528 48.672 23.744 48.736 24C48.816 24.24 48.888 24.504 48.952 24.792C49.016 25.064 49.072 25.336 49.12 25.608C49.184 25.864 49.224 26.104 49.24 26.328C49.288 26.056 49.352 25.752 49.432 25.416C49.512 25.08 49.6 24.736 49.696 24.384C49.808 24.032 49.912 23.712 50.008 23.424L52.48 16.128C52.528 16.016 52.568 15.888 52.6 15.744C52.648 15.584 52.688 15.432 52.72 15.288C52.752 15.144 52.768 15.032 52.768 14.952C52.768 14.68 52.68 14.48 52.504 14.352C52.328 14.208 52.096 14.136 51.808 14.136H50.56V12.864H56.752V14.136H55.6C55.456 14.136 55.328 14.184 55.216 14.28C55.104 14.36 54.992 14.528 54.88 14.784C54.768 15.024 54.624 15.392 54.448 15.888L49.552 30H47.152L42.04 15.288ZM57.1658 30V28.728H57.4538C57.6938 28.728 57.9418 28.696 58.1978 28.632C58.4698 28.552 58.6938 28.4 58.8698 28.176C59.0618 27.952 59.1578 27.616 59.1578 27.168V19.872C59.1578 19.44 59.0618 19.12 58.8698 18.912C58.6778 18.704 58.4458 18.568 58.1738 18.504C57.9178 18.44 57.6778 18.408 57.4538 18.408H57.1658V17.136H62.8058V27.168C62.8058 27.616 62.8938 27.952 63.0698 28.176C63.2618 28.4 63.4938 28.552 63.7658 28.632C64.0378 28.696 64.2858 28.728 64.5098 28.728H64.7978V30H57.1658ZM60.8618 14.976C60.2858 14.976 59.7978 14.84 59.3978 14.568C59.0138 14.28 58.8218 13.84 58.8218 13.248C58.8218 12.64 59.0218 12.2 59.4218 11.928C59.8218 11.656 60.3098 11.52 60.8858 11.52C61.4298 11.52 61.9018 11.656 62.3018 11.928C62.7178 12.2 62.9258 12.64 62.9258 13.248C62.9258 13.84 62.7178 14.28 62.3018 14.568C61.9018 14.84 61.4218 14.976 60.8618 14.976ZM65.6753 30V28.728H65.7473C66.1153 28.728 66.4353 28.688 66.7073 28.608C66.9793 28.528 67.1953 28.368 67.3553 28.128C67.5153 27.872 67.5953 27.496 67.5953 27V20.04C67.5953 19.56 67.5233 19.208 67.3793 18.984C67.2353 18.744 67.0353 18.592 66.7793 18.528C66.5233 18.448 66.2193 18.408 65.8673 18.408H65.7953V17.136H70.6433L71.1233 19.008H71.2433C71.4513 18.528 71.6913 18.128 71.9633 17.808C72.2353 17.488 72.5793 17.248 72.9953 17.088C73.4273 16.928 73.9713 16.848 74.6273 16.848C75.5713 16.848 76.2673 17.016 76.7153 17.352C77.1633 17.688 77.3873 18.168 77.3873 18.792C77.3873 19.528 77.1153 20.104 76.5713 20.52C76.0433 20.92 75.2993 21.12 74.3393 21.12C74.3393 20.672 74.2993 20.304 74.2193 20.016C74.1553 19.728 74.0353 19.512 73.8593 19.368C73.6993 19.208 73.4673 19.128 73.1633 19.128C72.7473 19.128 72.4113 19.272 72.1553 19.56C71.8993 19.848 71.7073 20.208 71.5793 20.64C71.4513 21.056 71.3633 21.48 71.3153 21.912C71.2673 22.344 71.2433 22.696 71.2433 22.968V27.12C71.2433 27.584 71.3153 27.936 71.4593 28.176C71.6033 28.4 71.8033 28.552 72.0593 28.632C72.3153 28.696 72.6033 28.728 72.9233 28.728H73.6913V30H65.6753ZM83.9498 30.24C82.7018 30.24 81.7418 29.856 81.0698 29.088C80.3978 28.304 80.0618 27.104 80.0618 25.488V20.112C80.0618 19.648 80.0058 19.296 79.8938 19.056C79.7818 18.8 79.6058 18.632 79.3658 18.552C79.1258 18.456 78.8138 18.408 78.4298 18.408H78.3818V17.136H83.7098V24.816C83.7098 25.504 83.7578 26.104 83.8538 26.616C83.9658 27.112 84.1578 27.504 84.4298 27.792C84.7018 28.064 85.0698 28.2 85.5338 28.2C86.0458 28.2 86.4618 28.056 86.7818 27.768C87.1018 27.464 87.3338 27.04 87.4778 26.496C87.6378 25.936 87.7178 25.288 87.7178 24.552V19.944C87.7178 19.48 87.6378 19.144 87.4778 18.936C87.3178 18.712 87.1098 18.568 86.8538 18.504C86.5978 18.44 86.3098 18.408 85.9898 18.408H85.9178V17.136H91.3658V27.216C91.3658 27.68 91.4298 28.024 91.5578 28.248C91.7018 28.456 91.8938 28.592 92.1338 28.656C92.3898 28.704 92.6698 28.728 92.9738 28.728H93.1658V30H88.3898L87.8618 28.296H87.7418C87.5018 28.712 87.2378 29.048 86.9498 29.304C86.6778 29.56 86.3818 29.76 86.0618 29.904C85.7418 30.032 85.4058 30.12 85.0538 30.168C84.7018 30.216 84.3338 30.24 83.9498 30.24ZM99.3096 30.24C98.1576 30.24 97.2216 30.12 96.5016 29.88C95.7976 29.624 95.2856 29.288 94.9656 28.872C94.6456 28.44 94.4856 27.96 94.4856 27.432C94.4856 26.904 94.6136 26.512 94.8696 26.256C95.1256 26 95.4296 25.832 95.7816 25.752C96.1336 25.656 96.4456 25.608 96.7176 25.608C96.7176 26.264 96.8216 26.84 97.0296 27.336C97.2536 27.816 97.5576 28.184 97.9416 28.44C98.3416 28.696 98.7976 28.824 99.3096 28.824C100.142 28.824 100.742 28.664 101.11 28.344C101.494 28.024 101.686 27.64 101.686 27.192C101.686 26.84 101.598 26.536 101.422 26.28C101.246 26.008 100.942 25.76 100.51 25.536C100.078 25.296 99.4856 25.048 98.7336 24.792C97.8696 24.488 97.1416 24.16 96.5496 23.808C95.9576 23.44 95.5016 23.008 95.1816 22.512C94.8776 22 94.7256 21.384 94.7256 20.664C94.7256 19.384 95.1976 18.432 96.1416 17.808C97.0856 17.168 98.3336 16.848 99.8856 16.848C100.894 16.848 101.702 16.96 102.31 17.184C102.934 17.392 103.382 17.672 103.654 18.024C103.942 18.36 104.086 18.712 104.086 19.08C104.086 19.624 103.894 20.04 103.51 20.328C103.142 20.6 102.518 20.736 101.638 20.736C101.638 19.936 101.462 19.32 101.11 18.888C100.758 18.44 100.23 18.216 99.5256 18.216C99.1896 18.216 98.8696 18.272 98.5656 18.384C98.2776 18.496 98.0376 18.664 97.8456 18.888C97.6696 19.096 97.5816 19.368 97.5816 19.704C97.5816 20.04 97.6696 20.336 97.8456 20.592C98.0376 20.848 98.3736 21.096 98.8536 21.336C99.3336 21.576 100.006 21.848 100.87 22.152C101.59 22.392 102.222 22.688 102.766 23.04C103.31 23.376 103.734 23.792 104.038 24.288C104.358 24.768 104.518 25.344 104.518 26.016C104.518 27.344 104.062 28.384 103.15 29.136C102.254 29.872 100.974 30.24 99.3096 30.24Z" fill="#FEFEFE"/>
<path d="M115.108 30.24C113.252 30.24 111.708 29.872 110.476 29.136C109.244 28.4 108.324 27.376 107.716 26.064C107.108 24.736 106.804 23.184 106.804 21.408C106.804 19.68 107.116 18.16 107.74 16.848C108.364 15.52 109.292 14.488 110.524 13.752C111.756 13 113.276 12.624 115.084 12.624C116.316 12.624 117.332 12.752 118.132 13.008C118.948 13.248 119.556 13.576 119.956 13.992C120.356 14.408 120.556 14.88 120.556 15.408C120.556 16 120.3 16.496 119.788 16.896C119.276 17.296 118.532 17.496 117.556 17.496C117.556 16.968 117.476 16.448 117.316 15.936C117.156 15.424 116.884 15 116.5 14.664C116.116 14.328 115.588 14.16 114.916 14.16C113.908 14.16 113.1 14.448 112.492 15.024C111.9 15.584 111.476 16.4 111.22 17.472C110.964 18.544 110.836 19.856 110.836 21.408C110.836 22.944 110.988 24.224 111.292 25.248C111.612 26.272 112.124 27.04 112.828 27.552C113.548 28.064 114.5 28.32 115.684 28.32C116.468 28.32 117.14 28.208 117.7 27.984C118.26 27.744 118.732 27.448 119.116 27.096C119.516 26.744 119.852 26.392 120.124 26.04C120.252 26.136 120.348 26.28 120.412 26.472C120.492 26.664 120.532 26.864 120.532 27.072C120.532 27.408 120.436 27.76 120.244 28.128C120.068 28.496 119.772 28.84 119.356 29.16C118.94 29.48 118.38 29.744 117.676 29.952C116.988 30.144 116.132 30.24 115.108 30.24ZM121.996 30V28.728H122.068C122.436 28.728 122.756 28.688 123.028 28.608C123.3 28.528 123.516 28.368 123.676 28.128C123.836 27.872 123.916 27.496 123.916 27V20.04C123.916 19.56 123.844 19.208 123.7 18.984C123.556 18.744 123.356 18.592 123.1 18.528C122.844 18.448 122.54 18.408 122.188 18.408H122.116V17.136H126.964L127.444 19.008H127.564C127.772 18.528 128.012 18.128 128.284 17.808C128.556 17.488 128.9 17.248 129.316 17.088C129.748 16.928 130.292 16.848 130.948 16.848C131.892 16.848 132.588 17.016 133.036 17.352C133.484 17.688 133.708 18.168 133.708 18.792C133.708 19.528 133.436 20.104 132.892 20.52C132.364 20.92 131.62 21.12 130.66 21.12C130.66 20.672 130.62 20.304 130.54 20.016C130.476 19.728 130.356 19.512 130.18 19.368C130.02 19.208 129.788 19.128 129.484 19.128C129.068 19.128 128.732 19.272 128.476 19.56C128.22 19.848 128.028 20.208 127.9 20.64C127.772 21.056 127.684 21.48 127.636 21.912C127.588 22.344 127.564 22.696 127.564 22.968V27.12C127.564 27.584 127.636 27.936 127.78 28.176C127.924 28.4 128.124 28.552 128.38 28.632C128.636 28.696 128.924 28.728 129.244 28.728H130.012V30H121.996ZM140.27 30.24C139.022 30.24 138.062 29.856 137.39 29.088C136.718 28.304 136.382 27.104 136.382 25.488V20.112C136.382 19.648 136.326 19.296 136.214 19.056C136.102 18.8 135.926 18.632 135.686 18.552C135.446 18.456 135.134 18.408 134.75 18.408H134.702V17.136H140.03V24.816C140.03 25.504 140.078 26.104 140.174 26.616C140.286 27.112 140.478 27.504 140.75 27.792C141.022 28.064 141.39 28.2 141.854 28.2C142.366 28.2 142.782 28.056 143.102 27.768C143.422 27.464 143.654 27.04 143.798 26.496C143.958 25.936 144.038 25.288 144.038 24.552V19.944C144.038 19.48 143.958 19.144 143.798 18.936C143.638 18.712 143.43 18.568 143.174 18.504C142.918 18.44 142.63 18.408 142.31 18.408H142.238V17.136H147.686V27.216C147.686 27.68 147.75 28.024 147.878 28.248C148.022 28.456 148.214 28.592 148.454 28.656C148.71 28.704 148.99 28.728 149.294 28.728H149.486V30H144.71L144.182 28.296H144.062C143.822 28.712 143.558 29.048 143.27 29.304C142.998 29.56 142.702 29.76 142.382 29.904C142.062 30.032 141.726 30.12 141.374 30.168C141.022 30.216 140.654 30.24 140.27 30.24ZM155.63 30.24C154.478 30.24 153.542 30.12 152.822 29.88C152.118 29.624 151.606 29.288 151.286 28.872C150.966 28.44 150.806 27.96 150.806 27.432C150.806 26.904 150.934 26.512 151.19 26.256C151.446 26 151.75 25.832 152.102 25.752C152.454 25.656 152.766 25.608 153.038 25.608C153.038 26.264 153.142 26.84 153.35 27.336C153.574 27.816 153.878 28.184 154.262 28.44C154.662 28.696 155.118 28.824 155.63 28.824C156.462 28.824 157.062 28.664 157.43 28.344C157.814 28.024 158.006 27.64 158.006 27.192C158.006 26.84 157.918 26.536 157.742 26.28C157.566 26.008 157.262 25.76 156.83 25.536C156.398 25.296 155.806 25.048 155.054 24.792C154.19 24.488 153.462 24.16 152.87 23.808C152.278 23.44 151.822 23.008 151.502 22.512C151.198 22 151.046 21.384 151.046 20.664C151.046 19.384 151.518 18.432 152.462 17.808C153.406 17.168 154.654 16.848 156.206 16.848C157.214 16.848 158.022 16.96 158.63 17.184C159.254 17.392 159.702 17.672 159.974 18.024C160.262 18.36 160.406 18.712 160.406 19.08C160.406 19.624 160.214 20.04 159.83 20.328C159.462 20.6 158.838 20.736 157.958 20.736C157.958 19.936 157.782 19.32 157.43 18.888C157.078 18.44 156.55 18.216 155.846 18.216C155.51 18.216 155.19 18.272 154.886 18.384C154.598 18.496 154.358 18.664 154.166 18.888C153.99 19.096 153.902 19.368 153.902 19.704C153.902 20.04 153.99 20.336 154.166 20.592C154.358 20.848 154.694 21.096 155.174 21.336C155.654 21.576 156.326 21.848 157.19 22.152C157.91 22.392 158.542 22.688 159.086 23.04C159.63 23.376 160.054 23.792 160.358 24.288C160.678 24.768 160.838 25.344 160.838 26.016C160.838 27.344 160.382 28.384 159.47 29.136C158.574 29.872 157.294 30.24 155.63 30.24ZM162.285 30V28.728H162.333C162.701 28.728 163.021 28.688 163.293 28.608C163.581 28.528 163.805 28.376 163.965 28.152C164.141 27.912 164.229 27.552 164.229 27.072L164.205 14.496C164.205 14.064 164.109 13.744 163.917 13.536C163.725 13.328 163.493 13.192 163.221 13.128C162.965 13.064 162.725 13.032 162.501 13.032H162.213V11.76H167.853V15.72C167.853 16.136 167.837 16.584 167.805 17.064C167.773 17.528 167.741 17.928 167.709 18.264C167.677 18.6 167.661 18.768 167.661 18.768H167.877C168.197 18.16 168.541 17.72 168.909 17.448C169.293 17.176 169.701 17.008 170.133 16.944C170.581 16.864 171.053 16.824 171.549 16.824C172.781 16.824 173.749 17.192 174.453 17.928C175.157 18.664 175.509 19.84 175.509 21.456V27.024C175.509 27.52 175.565 27.888 175.677 28.128C175.805 28.368 175.989 28.528 176.229 28.608C176.469 28.688 176.765 28.728 177.117 28.728H177.189V30H171.861V22.104C171.861 21.064 171.717 20.264 171.429 19.704C171.141 19.144 170.645 18.864 169.941 18.864C169.413 18.864 168.997 19.04 168.693 19.392C168.389 19.728 168.173 20.184 168.045 20.76C167.917 21.32 167.853 21.928 167.853 22.584L167.877 27.168C167.877 27.616 167.941 27.952 168.069 28.176C168.213 28.4 168.413 28.552 168.669 28.632C168.925 28.696 169.229 28.728 169.581 28.728H169.653V30H162.285ZM185.157 30.24C183.125 30.24 181.581 29.664 180.525 28.512C179.469 27.344 178.941 25.72 178.941 23.64C178.941 21.384 179.461 19.688 180.501 18.552C181.541 17.4 183.005 16.824 184.893 16.824C186.637 16.824 188.005 17.312 188.997 18.288C190.005 19.264 190.509 20.704 190.509 22.608V23.832H182.637C182.669 24.904 182.813 25.784 183.069 26.472C183.325 27.144 183.685 27.64 184.148 27.96C184.628 28.28 185.197 28.44 185.853 28.44C186.413 28.44 186.909 28.36 187.341 28.2C187.789 28.024 188.173 27.792 188.493 27.504C188.813 27.2 189.061 26.864 189.237 26.496C189.461 26.608 189.621 26.768 189.717 26.976C189.829 27.168 189.885 27.4 189.885 27.672C189.885 28.12 189.717 28.544 189.381 28.944C189.045 29.328 188.525 29.64 187.821 29.88C187.133 30.12 186.245 30.24 185.157 30.24ZM186.837 22.296C186.837 21.48 186.773 20.784 186.645 20.208C186.517 19.616 186.317 19.168 186.045 18.864C185.773 18.544 185.405 18.384 184.941 18.384C184.493 18.384 184.101 18.536 183.765 18.84C183.445 19.128 183.189 19.568 182.997 20.16C182.821 20.736 182.717 21.448 182.685 22.296H186.837ZM192.003 30V28.728H192.075C192.443 28.728 192.763 28.688 193.035 28.608C193.307 28.528 193.523 28.368 193.683 28.128C193.843 27.872 193.923 27.496 193.923 27V20.04C193.923 19.56 193.851 19.208 193.707 18.984C193.563 18.744 193.363 18.592 193.107 18.528C192.851 18.448 192.547 18.408 192.195 18.408H192.123V17.136H196.971L197.451 19.008H197.571C197.779 18.528 198.019 18.128 198.291 17.808C198.563 17.488 198.907 17.248 199.323 17.088C199.755 16.928 200.299 16.848 200.955 16.848C201.899 16.848 202.595 17.016 203.043 17.352C203.491 17.688 203.715 18.168 203.715 18.792C203.715 19.528 203.443 20.104 202.899 20.52C202.371 20.92 201.627 21.12 200.667 21.12C200.667 20.672 200.627 20.304 200.547 20.016C200.483 19.728 200.363 19.512 200.187 19.368C200.027 19.208 199.795 19.128 199.491 19.128C199.075 19.128 198.739 19.272 198.483 19.56C198.227 19.848 198.035 20.208 197.907 20.64C197.779 21.056 197.691 21.48 197.643 21.912C197.595 22.344 197.571 22.696 197.571 22.968V27.12C197.571 27.584 197.643 27.936 197.787 28.176C197.931 28.4 198.131 28.552 198.387 28.632C198.643 28.696 198.931 28.728 199.251 28.728H200.019V30H192.003Z" fill="#FF7800"/>
<defs>
<clipPath id="clip0_2158_28551">
<rect width="56" height="33" fill="white" transform="translate(0 4)"/>
</clipPath>
</defs>
</svg>
