<svg width="21" height="17" viewBox="0 0 21 17" fill="none" xmlns="http://www.w3.org/2000/svg">
<path d="M20.0814 15.2025L20.0814 2.20717C20.0814 1.96098 19.9836 1.72488 19.8095 1.5508C19.6354 1.37673 19.3993 1.27893 19.1531 1.27893L2.44484 1.27893C2.19866 1.27893 1.96255 1.37673 1.78848 1.55081C1.6144 1.72488 1.5166 1.96098 1.5166 2.20717L1.5166 15.2025C1.5166 15.4487 1.6144 15.6848 1.78848 15.8589C1.96256 16.0329 2.19866 16.1307 2.44484 16.1307L19.1531 16.1307C19.3993 16.1307 19.6354 16.0329 19.8095 15.8589C19.9836 15.6848 20.0814 15.4487 20.0814 15.2025Z" stroke="#768797" stroke-width="1.72973" stroke-linecap="round" stroke-linejoin="round"/>
<path d="M6.15723 4.99188L6.15723 5.92012M11.2625 1.27893C11.2625 1.27893 8.94194 5.92012 9.40606 9.16896L12.1908 9.16896L12.6549 16.1307L11.2625 1.27893ZM15.4396 16.1307L9.87018 16.1307L15.4396 16.1307ZM13.5831 1.27893L8.0137 1.27893L13.5831 1.27893ZM15.4396 4.99188L15.4396 5.92012L15.4396 4.99188Z" stroke="#768797" stroke-width="1.72973" stroke-linecap="round" stroke-linejoin="round"/>
<path d="M5.69434 11.0255C5.69434 11.0255 7.639 12.4179 10.7996 12.4179C13.9603 12.4179 15.905 11.0255 15.905 11.0255" stroke="#768797" stroke-width="1.72973" stroke-linecap="round" stroke-linejoin="round"/>
</svg>
