<svg width="60" height="60" viewBox="0 0 60 60" fill="none" xmlns="http://www.w3.org/2000/svg">
<path d="M53.6581 0H6.40718C2.86967 0 0 2.86967 0 6.40718V53.5918C0 57.1294 2.86967 59.999 6.40718 59.999H53.5918C57.1294 59.999 59.999 57.1294 59.999 53.5918V6.40718C60.0656 2.86967 57.1959 0 53.6585 0H53.6581ZM55.7939 53.6588C55.7939 54.86 54.8598 55.7947 53.6581 55.7947H6.40718C5.20601 55.7947 4.27131 54.8605 4.27131 53.6588V6.40788C4.27131 5.20672 5.20549 4.27201 6.40718 4.27201H53.5918C54.793 4.27201 55.7277 5.2062 55.7277 6.40788V53.6602L55.7939 53.6588Z" fill="#FF7800"/>
<path d="M23.6243 17.1516H39.842L13.4805 43.5131L16.5505 46.5832L42.9121 20.2217V36.4394H47.1834V12.8809H23.6248L23.6243 17.1516Z" fill="#FF7800"/>
</svg>
