<svg width="23" height="23" viewBox="0 0 23 23" fill="none" xmlns="http://www.w3.org/2000/svg">
<path d="M0 18.0775H1.12186C3.38809 18.0775 5.39168 17.4471 7.12887 16.2014C5.11403 16.1564 3.40685 14.7381 2.61892 12.7796C2.83654 12.9034 3.13295 12.9747 3.4894 12.9747C3.63573 12.9747 3.87961 12.9372 4.19853 12.8734C4.5062 12.8171 4.72382 12.7796 4.85139 12.7796C2.59641 12.4006 0.911746 10.5021 0.911746 8.16457C1.5646 8.42721 1.74845 8.51726 2.29625 8.61856C2.57015 8.67484 2.85905 8.69736 3.15547 8.69736C1.8385 7.87191 0.911746 6.37484 0.911746 4.89654C0.911746 3.76343 1.10685 3.08806 1.6584 2.31889C3.93589 5.26424 7.45905 7.11775 11.2261 7.38039C11.2261 7.23406 11.2111 7.0352 11.2036 6.79507C11.1886 6.55494 11.1811 6.38235 11.1811 6.25853C11.1811 4.55135 12.1341 2.9755 13.5636 2.12754C14.284 1.70731 15.0382 1.50095 15.8449 1.50095C17.1506 1.50095 18.3625 2.00747 19.4843 3.02427C20.1222 2.94548 20.7225 2.71661 21.5555 2.33765C21.9682 2.14254 22.2646 2.01498 22.4372 1.94744C22.0845 2.96424 21.3829 3.69964 20.1822 4.53259C21.2928 4.41628 22.2308 4.15364 22.9963 3.75592C22.5047 4.61514 21.7731 5.44809 20.7976 6.26228V6.82509C20.7976 8.88496 20.2272 11.0386 19.2067 13.0385C18.1899 15.0383 16.539 16.828 14.6067 18.145C12.6744 19.462 10.0742 20.2611 7.29021 20.2611C4.64502 20.2611 2.20995 19.5295 0 18.0775Z" fill="#9A9AB4"/>
</svg>
