<svg width="82" height="60" viewBox="0 0 82 60" fill="none" xmlns="http://www.w3.org/2000/svg">
<path d="M77.1648 37.1733C77.1648 36.0853 78.0448 35.2052 79.1329 35.2052C80.2209 35.2052 81.1009 36.0852 81.1009 37.1733V58.0319C81.1009 59.12 80.221 60 79.1329 60H1.96805C0.880027 60 0 59.12 0 58.0319V37.1733C0 36.0853 0.879953 35.2052 1.96805 35.2052C3.05607 35.2052 3.9361 36.0852 3.9361 37.1733V56.0641H77.1652L77.1648 37.1733ZM38.5824 1.96805C38.5824 0.880027 39.4624 0 40.5505 0C41.6385 0 42.5185 0.879953 42.5185 1.96805V42.8513L57.9062 27.4636C58.6763 26.6934 59.9217 26.6934 60.6891 27.4636C61.4592 28.2337 61.4592 29.4792 60.6891 30.2465L41.9592 48.9801C41.8617 49.0798 41.7519 49.1694 41.6363 49.2482L41.6312 49.251L41.5944 49.2749L41.5915 49.2778L41.5517 49.3016L41.5467 49.3045C41.2548 49.475 40.9131 49.5754 40.5483 49.5754C40.1827 49.5754 39.8417 49.4757 39.5498 49.3045L39.5448 49.3016L39.505 49.2778L39.5021 49.2749L39.4653 49.251L39.4602 49.2482C39.3446 49.1694 39.2341 49.0798 39.1373 48.9801L20.4074 30.2465C19.6373 29.4764 19.6373 28.231 20.4074 27.4636C21.1776 26.6934 22.423 26.6934 23.1904 27.4636L38.578 42.8513V1.96805H38.5824Z" fill="#FF7800"/>
</svg>
