<svg width="29" height="20" viewBox="0 0 29 20" fill="none" xmlns="http://www.w3.org/2000/svg">
<path d="M0 16.7622V4.11221C0 3.27346 0.378626 2.46907 1.05259 1.87598C1.72654 1.2829 2.64063 0.949707 3.59375 0.949707H25.1562C26.1094 0.949707 27.0235 1.2829 27.6974 1.87598C28.3714 2.46907 28.75 3.27346 28.75 4.11221V16.7622C28.75 17.601 28.3714 18.4053 27.6974 18.9984C27.0235 19.5915 26.1094 19.9247 25.1562 19.9247H3.59375C2.64063 19.9247 1.72654 19.5915 1.05259 18.9984C0.378626 18.4053 0 17.601 0 16.7622ZM12.2008 5.84051C12.0664 5.75634 11.9084 5.70633 11.7439 5.69596C11.5794 5.6856 11.4148 5.71527 11.2682 5.78173C11.1216 5.8482 10.9986 5.94889 10.9127 6.07277C10.8268 6.19666 10.7814 6.33896 10.7812 6.48408V14.3903C10.7814 14.5355 10.8268 14.6778 10.9127 14.8016C10.9986 14.9255 11.1216 15.0262 11.2682 15.0927C11.4148 15.1591 11.5794 15.1888 11.7439 15.1784C11.9084 15.1681 12.0664 15.1181 12.2008 15.0339L18.4898 11.0808C18.6063 11.0076 18.7012 10.9111 18.7667 10.7991C18.8322 10.6872 18.8664 10.5631 18.8664 10.4372C18.8664 10.3113 18.8322 10.1872 18.7667 10.0753C18.7012 9.96333 18.6063 9.86677 18.4898 9.79364L12.2008 5.84051V5.84051Z" fill="#9A9AB4"/>
</svg>
